G04 DipTrace 3.0.0.2*
G04 BottomAssy.gbr*
%MOMM*%
G04 #@! TF.FileFunction,Drawing,Bot*
G04 #@! TF.Part,Single*
%ADD10C,0.25*%
%ADD72C,0.07843*%
%FSLAX35Y35*%
G04*
G71*
G90*
G75*
G01*
G04 BotAssy*
%LPD*%
X2051992Y3099000D2*
D10*
Y4771000D1*
X1693994Y6381000D2*
Y5419000D1*
X1010000Y6818966D2*
Y7581000D1*
X4916000Y7308000D2*
Y6800000D1*
X2149270Y3682356D2*
D72*
X2098226D1*
Y3704256D1*
X2100697Y3711556D1*
X2103111Y3713971D1*
X2107941Y3716386D1*
X2115241D1*
X2120126Y3713971D1*
X2122541Y3711556D1*
X2124955Y3704256D1*
X2127426Y3711556D1*
X2129841Y3713971D1*
X2134670Y3716386D1*
X2139555D1*
X2144385Y3713971D1*
X2146855Y3711556D1*
X2149270Y3704256D1*
Y3682356D1*
X2124955D2*
Y3704256D1*
X2149270Y3746672D2*
X2146855Y3741787D1*
X2141970Y3736957D1*
X2137141Y3734487D1*
X2129841Y3732072D1*
X2117655D1*
X2110411Y3734487D1*
X2105526Y3736957D1*
X2100697Y3741787D1*
X2098226Y3746672D1*
Y3756387D1*
X2100697Y3761216D1*
X2105526Y3766101D1*
X2110411Y3768516D1*
X2117655Y3770930D1*
X2129841D1*
X2137141Y3768516D1*
X2141970Y3766101D1*
X2146855Y3761216D1*
X2149270Y3756387D1*
Y3746672D1*
X2098226Y3825531D2*
X2149270Y3806046D1*
X2098226Y3786617D1*
X2115241Y3793917D2*
Y3818231D1*
X2124955Y3841218D2*
Y3863061D1*
X2127426Y3870361D1*
X2129841Y3872832D1*
X2134670Y3875247D1*
X2139555D1*
X2144385Y3872832D1*
X2146855Y3870361D1*
X2149270Y3863061D1*
Y3841218D1*
X2098226D1*
X2124955Y3858232D2*
X2098226Y3875247D1*
X2149270Y3890933D2*
X2098226D1*
Y3907948D1*
X2100697Y3915248D1*
X2105526Y3920133D1*
X2110411Y3922548D1*
X2117655Y3924962D1*
X2129841D1*
X2137141Y3922548D1*
X2141970Y3920133D1*
X2146855Y3915248D1*
X2149270Y3907948D1*
Y3890933D1*
Y4021586D2*
Y3990027D1*
X2098226D1*
Y4021586D1*
X2124955Y3990027D2*
Y4009456D1*
X2149270Y4037272D2*
X2098226D1*
Y4054287D1*
X2100697Y4061587D1*
X2105526Y4066472D1*
X2110411Y4068887D1*
X2117655Y4071301D1*
X2129841D1*
X2137141Y4068886D1*
X2141970Y4066472D1*
X2146855Y4061586D1*
X2149270Y4054286D1*
Y4037272D1*
X2137141Y4123431D2*
X2141970Y4121016D1*
X2146855Y4116131D1*
X2149270Y4111302D1*
Y4101587D1*
X2146855Y4096702D1*
X2141970Y4091873D1*
X2137141Y4089402D1*
X2129841Y4086987D1*
X2117655D1*
X2110411Y4089402D1*
X2105526Y4091873D1*
X2100697Y4096702D1*
X2098226Y4101587D1*
Y4111302D1*
X2100697Y4116131D1*
X2105526Y4121017D1*
X2110411Y4123431D1*
X2117655D1*
Y4111302D1*
X2149270Y4170676D2*
Y4139117D1*
X2098226D1*
Y4170676D1*
X2124955Y4139117D2*
Y4158546D1*
X1609230Y6150106D2*
X1660274D1*
Y6128206D1*
X1657803Y6120906D1*
X1655389Y6118491D1*
X1650559Y6116076D1*
X1643259D1*
X1638374Y6118491D1*
X1635959Y6120906D1*
X1633545Y6128206D1*
X1631074Y6120906D1*
X1628659Y6118491D1*
X1623830Y6116076D1*
X1618945D1*
X1614115Y6118491D1*
X1611645Y6120906D1*
X1609230Y6128206D1*
Y6150106D1*
X1633545D2*
Y6128206D1*
X1609230Y6085790D2*
X1611645Y6090676D1*
X1616530Y6095505D1*
X1621359Y6097976D1*
X1628659Y6100390D1*
X1640845D1*
X1648089Y6097976D1*
X1652974Y6095505D1*
X1657803Y6090676D1*
X1660274Y6085790D1*
Y6076076D1*
X1657803Y6071246D1*
X1652974Y6066361D1*
X1648089Y6063946D1*
X1640845Y6061532D1*
X1628659D1*
X1621359Y6063946D1*
X1616530Y6066361D1*
X1611645Y6071246D1*
X1609230Y6076076D1*
Y6085790D1*
X1660274Y6006931D2*
X1609230Y6026416D1*
X1660274Y6045845D1*
X1643259Y6038545D2*
Y6014231D1*
X1633545Y5991245D2*
Y5969401D1*
X1631074Y5962101D1*
X1628659Y5959630D1*
X1623830Y5957215D1*
X1618945D1*
X1614115Y5959630D1*
X1611645Y5962101D1*
X1609230Y5969401D1*
Y5991245D1*
X1660274D1*
X1633545Y5974230D2*
X1660274Y5957215D1*
X1609230Y5941529D2*
X1660274D1*
Y5924514D1*
X1657803Y5917214D1*
X1652974Y5912329D1*
X1648089Y5909914D1*
X1640845Y5907500D1*
X1628659D1*
X1621359Y5909914D1*
X1616530Y5912329D1*
X1611645Y5917214D1*
X1609230Y5924514D1*
Y5941529D1*
Y5810877D2*
Y5842435D1*
X1660274D1*
Y5810877D1*
X1633545Y5842435D2*
Y5823006D1*
X1609230Y5795190D2*
X1660274D1*
Y5778176D1*
X1657803Y5770876D1*
X1652974Y5765990D1*
X1648089Y5763576D1*
X1640845Y5761161D1*
X1628659D1*
X1621359Y5763576D1*
X1616530Y5765990D1*
X1611645Y5770876D1*
X1609230Y5778176D1*
Y5795190D1*
X1621359Y5709031D2*
X1616530Y5711446D1*
X1611645Y5716331D1*
X1609230Y5721160D1*
Y5730875D1*
X1611645Y5735760D1*
X1616530Y5740589D1*
X1621359Y5743060D1*
X1628659Y5745475D1*
X1640845D1*
X1648089Y5743060D1*
X1652974Y5740589D1*
X1657803Y5735760D1*
X1660274Y5730875D1*
Y5721160D1*
X1657803Y5716331D1*
X1652974Y5711446D1*
X1648089Y5709031D1*
X1640845D1*
Y5721160D1*
X1609230Y5661787D2*
Y5693345D1*
X1660274D1*
Y5661787D1*
X1633545Y5693345D2*
Y5673916D1*
M02*
