G04 DipTrace 3.0.0.2*
G04 Bottom.gbr*
%MOMM*%
G04 #@! TF.FileFunction,Copper,L2,Bot*
G04 #@! TF.Part,Single*
G04 #@! TA.AperFunction,ComponentPad*
%ADD14C,1.5*%
G04 #@! TA.AperFunction,CopperBalancing*
%ADD16C,0.635*%
%ADD17C,0.33*%
G04 #@! TA.AperFunction,ComponentPad*
%ADD18R,1.6X1.6*%
%ADD19C,1.6*%
%ADD20C,1.27*%
%ADD21R,1.27X1.27*%
%ADD22R,1.7X1.7*%
%ADD23C,1.7*%
%ADD24C,4.0*%
%ADD25C,1.27*%
%ADD26R,1.8X1.8*%
%ADD27C,1.8*%
%ADD28C,4.5*%
%ADD30C,3.0*%
%ADD31R,1.5X3.0*%
%ADD32C,2.0*%
%FSLAX35Y35*%
G04*
G71*
G90*
G75*
G01*
G04 Bottom*
%LPD*%
X1088100Y7455083D2*
D16*
X1618685D1*
X1981255D2*
X2278737D1*
X2641308D2*
X3832503D1*
X3967490D2*
X4811916D1*
X1088100Y7391917D2*
X1344965D1*
X1465069D2*
X1551092D1*
X2048848D2*
X2211145D1*
X2708900D2*
X3758213D1*
X4041780D2*
X4290522D1*
X4525472D2*
X4811916D1*
X1088100Y7328750D2*
X1246490D1*
X2087543D2*
X2172449D1*
X2747596D2*
X3735765D1*
X4064228D2*
X4263857D1*
X4552137D2*
X4811916D1*
X1088100Y7265583D2*
X1210400D1*
X2108627D2*
X2151329D1*
X2768556D2*
X3740106D1*
X4059888D2*
X4268942D1*
X4547052D2*
X4811916D1*
X1088100Y7202417D2*
X1199361D1*
X2775625D2*
X3774336D1*
X4025657D2*
X4310861D1*
X4505256D2*
X4811916D1*
X1088100Y7139250D2*
X1208787D1*
X2109619D2*
X2150483D1*
X2769672D2*
X3759081D1*
X4040912D2*
X4811916D1*
X1088100Y7076083D2*
X1242522D1*
X2089775D2*
X2170217D1*
X2749704D2*
X3735889D1*
X4064104D2*
X4811916D1*
X1088100Y7012917D2*
X1329958D1*
X1480076D2*
X1547371D1*
X2052692D2*
X2207300D1*
X2712621D2*
X3739733D1*
X4060260D2*
X4811916D1*
X1088100Y6949750D2*
X1611863D1*
X2648129D2*
X3773220D1*
X4026773D2*
X4811916D1*
X1088100Y6886583D2*
X1901954D1*
X2408019D2*
X3759949D1*
X4040044D2*
X4292506D1*
X4523487D2*
X4811916D1*
X1088100Y6823417D2*
X1864995D1*
X2444978D2*
X3736137D1*
X4063856D2*
X4264353D1*
X4551641D2*
X4811916D1*
X1088100Y6760250D2*
X1845275D1*
X2464698D2*
X3739361D1*
X4060632D2*
X4268197D1*
X4547796D2*
X4811916D1*
X1088100Y6697083D2*
X1839322D1*
X2470651D2*
X3772104D1*
X4027890D2*
X4307761D1*
X4508232D2*
X4811916D1*
X1088100Y6633917D2*
X1846516D1*
X2463458D2*
X4811916D1*
X1088100Y6570750D2*
X1867600D1*
X2442374D2*
X4811916D1*
X1088100Y6507583D2*
X1906543D1*
X2403555D2*
X4811916D1*
X1088100Y6444417D2*
X1974508D1*
X2335466D2*
X4579124D1*
X1088100Y6381250D2*
X1160294D1*
X1239719D2*
X4528275D1*
X1347867Y6318083D2*
X1670402D1*
X2021686D2*
X2904808D1*
X3095233D2*
X3666808D1*
X3857233D2*
X4510291D1*
X1382222Y6254917D2*
X1670402D1*
X2021686D2*
X2856439D1*
X3143602D2*
X3618439D1*
X3905602D2*
X4515004D1*
X1390407Y6191750D2*
X1670402D1*
X2021686D2*
X2846145D1*
X3153896D2*
X3608145D1*
X3915896D2*
X4544522D1*
X1575326Y6128583D2*
X1670402D1*
X2021686D2*
X2864252D1*
X3135789D2*
X3626252D1*
X3897789D2*
X4167862D1*
X4432206D2*
X4626005D1*
X4774015D2*
X4811842D1*
X1637586Y6065417D2*
X1670354D1*
X2021686D2*
X2932589D1*
X3067452D2*
X3694589D1*
X3829452D2*
X4129043D1*
X4470901D2*
X4811916D1*
X1088100Y6002250D2*
X1128420D1*
X2021686D2*
X4119493D1*
X4480575D2*
X4811916D1*
X2017098Y5939083D2*
X4133508D1*
X4466436D2*
X4811916D1*
X2019950Y5875917D2*
X4169103D1*
X4430842D2*
X4811916D1*
X1088100Y5812750D2*
X1123087D1*
X1997378D2*
X2845897D1*
X3154144D2*
X4129539D1*
X4470405D2*
X4811916D1*
X1088100Y5749583D2*
X1152357D1*
X1647632D2*
X1705749D1*
X1986216D2*
X2845897D1*
X3154144D2*
X4119369D1*
X4480575D2*
X4811916D1*
X1088100Y5686417D2*
X1206059D1*
X1593930D2*
X1675239D1*
X2016725D2*
X2845897D1*
X3154144D2*
X4133012D1*
X4467057D2*
X4811916D1*
X1088100Y5623250D2*
X1328594D1*
X1471394D2*
X1671891D1*
X2020074D2*
X2845897D1*
X3154144D2*
X3223424D1*
X3763100D2*
X4119369D1*
X4480699D2*
X4811916D1*
X1088100Y5560083D2*
X1693843D1*
X1998246D2*
X2845897D1*
X3154144D2*
X3223424D1*
X3807376D2*
X4119369D1*
X4480699D2*
X4811916D1*
X1088100Y5496917D2*
X1759451D1*
X1932514D2*
X2858795D1*
X3141246D2*
X3223424D1*
X3818662D2*
X4119369D1*
X4480699D2*
X4811916D1*
X1088100Y5433750D2*
X1231856D1*
X1568133D2*
X2845897D1*
X3154144D2*
X3223424D1*
X3804771D2*
X4119369D1*
X4480699D2*
X4811916D1*
X1088100Y5370583D2*
X1166247D1*
X1633741D2*
X2861400D1*
X3138642D2*
X3223424D1*
X3755658D2*
X4119369D1*
X4480699D2*
X4811916D1*
X1088100Y5307417D2*
X1130404D1*
X1669584D2*
X2921675D1*
X3078366D2*
X4811916D1*
X1687195Y5244250D2*
X1766893D1*
X2276555D2*
X4811916D1*
X2276555Y5181083D2*
X4811916D1*
X1088100Y5117917D2*
X1121475D1*
X2276555D2*
X4811916D1*
X1088100Y5054750D2*
X1149256D1*
X1650732D2*
X1687642D1*
X2276555D2*
X4811916D1*
X1088100Y4991583D2*
X1200354D1*
X1599759D2*
X1722120D1*
X2276555D2*
X4811916D1*
X1088100Y4928417D2*
X1224414D1*
X1575574D2*
X4811916D1*
X1088100Y4865250D2*
X1162278D1*
X1637710D2*
X4811916D1*
X1088100Y4802083D2*
X1128296D1*
X1671692D2*
X4811916D1*
X1687939Y4738917D2*
X1882358D1*
X1917552D2*
X4811916D1*
X1689552Y4675750D2*
X1761436D1*
X2038554D2*
X4811916D1*
X1088100Y4612583D2*
X1123087D1*
X1676901D2*
X1729810D1*
X2070180D2*
X4811916D1*
X1088100Y4549417D2*
X1152481D1*
X1647508D2*
X1725593D1*
X2074396D2*
X4811916D1*
X1088100Y4486250D2*
X1206183D1*
X1593806D2*
X1746553D1*
X2053436D2*
X4811916D1*
X1088100Y4423083D2*
X1217469D1*
X1582519D2*
X1762552D1*
X2037437D2*
X4811916D1*
X1088100Y4359917D2*
X1158558D1*
X1641431D2*
X1730182D1*
X2069808D2*
X4811916D1*
X1088100Y4296750D2*
X1126312D1*
X1673677D2*
X1725469D1*
X2074520D2*
X4811916D1*
X1688683Y4233583D2*
X1745809D1*
X2054181D2*
X4811916D1*
X1689056Y4170417D2*
X1763668D1*
X2036321D2*
X4811916D1*
X1088100Y4107250D2*
X1124947D1*
X1675041D2*
X1730554D1*
X2069435D2*
X4811916D1*
X1088100Y4044083D2*
X1155953D1*
X1644035D2*
X1725345D1*
X2074644D2*
X4811916D1*
X1088100Y3980917D2*
X1212508D1*
X1587480D2*
X1745065D1*
X2054925D2*
X4811916D1*
X1088100Y3917750D2*
X1359600D1*
X1440389D2*
X1764784D1*
X2035205D2*
X4811916D1*
X1088100Y3854583D2*
X1730926D1*
X2069063D2*
X4811916D1*
X1088100Y3791417D2*
X1725221D1*
X2074768D2*
X4811916D1*
X1088100Y3728250D2*
X1744320D1*
X2055669D2*
X4811916D1*
X1088100Y3665083D2*
X1765900D1*
X2034089D2*
X4811916D1*
X1088100Y3601917D2*
X1731298D1*
X2068691D2*
X4811916D1*
X1088100Y3538750D2*
X1725097D1*
X2074892D2*
X4811916D1*
X1088100Y3475583D2*
X1743576D1*
X2056413D2*
X4811916D1*
X1088100Y3412417D2*
X1724353D1*
X2075637D2*
X4811916D1*
X1088100Y3349250D2*
X1724353D1*
X2075637D2*
X4811916D1*
X1088100Y3286083D2*
X1724353D1*
X2075637D2*
X4811916D1*
X1088100Y3222917D2*
X1724353D1*
X2075637D2*
X4811916D1*
X1088100Y3159750D2*
X1724353D1*
X2075637D2*
X4811916D1*
X1088100Y3096583D2*
X4811916D1*
X1088100Y3033417D2*
X4811916D1*
X1088100Y2970250D2*
X4811916D1*
X1088100Y2907083D2*
X4811916D1*
X1088100Y2843917D2*
X4811916D1*
X1088100Y2780750D2*
X4811916D1*
X1088100Y2717583D2*
X4811916D1*
X1088100Y2654417D2*
X4811916D1*
X1088100Y2591250D2*
X4811916D1*
X1088100Y2528083D2*
X3361958D1*
X1088100Y2464917D2*
X3361958D1*
X1088100Y2401750D2*
X3361958D1*
X1088100Y2338583D2*
X3361958D1*
X1088100Y2275417D2*
X3361958D1*
X1088100Y2212250D2*
X3361958D1*
X1088100Y2149083D2*
X3361958D1*
X1088100Y2085917D2*
X3361958D1*
X1088100Y2022750D2*
X3361958D1*
X1088100Y1959583D2*
X3361958D1*
X1088100Y1896417D2*
X3361958D1*
X1088100Y1833250D2*
X3361958D1*
X1088100Y1770083D2*
X3361958D1*
X1088100Y1706917D2*
X3361958D1*
X1088100Y1643750D2*
X3361958D1*
X1088100Y1580583D2*
X3361958D1*
X1088100Y1517417D2*
X3361958D1*
X1088100Y1454250D2*
X3361958D1*
X1088100Y1391083D2*
X3361958D1*
X1339061Y1327917D2*
X3361958D1*
X1378873Y1264750D2*
X3361958D1*
X1390655Y1201583D2*
X3361958D1*
X1379989Y1138417D2*
X3361958D1*
X3261527Y5664290D2*
X3558357D1*
X3558484Y5637718D1*
X3580759Y5649870D1*
X3604641Y5658447D1*
X3629558Y5663244D1*
X3654916Y5664147D1*
X3680112Y5661135D1*
X3704542Y5654278D1*
X3727626Y5643741D1*
X3748812Y5629775D1*
X3767594Y5612714D1*
X3783525Y5592964D1*
X3796225Y5570996D1*
X3805390Y5547334D1*
X3810803Y5522543D1*
X3812357Y5500000D1*
X3810397Y5474701D1*
X3804565Y5450006D1*
X3795000Y5426503D1*
X3781930Y5404753D1*
X3765666Y5385276D1*
X3746597Y5368535D1*
X3725178Y5354931D1*
X3701919Y5344787D1*
X3677375Y5338345D1*
X3652132Y5335760D1*
X3626793Y5337093D1*
X3601961Y5342312D1*
X3578228Y5351293D1*
X3558348Y5362406D1*
X3558357Y5335710D1*
X3229777D1*
Y5664290D1*
X3261527D1*
X1973393Y5264290D2*
X2270223D1*
Y4935710D1*
X1941643D1*
Y4962375D1*
X1926519Y4953617D1*
X1902702Y4943751D1*
X1877634Y4937733D1*
X1851933Y4935710D1*
X1826233Y4937733D1*
X1801165Y4943751D1*
X1777347Y4953617D1*
X1755366Y4967087D1*
X1735763Y4983829D1*
X1719020Y5003433D1*
X1705550Y5025414D1*
X1695684Y5049232D1*
X1689666Y5074299D1*
X1687643Y5100000D1*
X1689666Y5125701D1*
X1695684Y5150768D1*
X1705550Y5174586D1*
X1719020Y5196567D1*
X1735763Y5216171D1*
X1755366Y5232913D1*
X1777347Y5246383D1*
X1801165Y5256249D1*
X1826233Y5262267D1*
X1851933Y5264290D1*
X1877634Y5262267D1*
X1902702Y5256249D1*
X1926519Y5246383D1*
X1941671Y5237477D1*
X1941643Y5264290D1*
X1973393D1*
X3147334Y5424871D2*
X3143707Y5401966D1*
X3136540Y5379910D1*
X3126012Y5359247D1*
X3112380Y5340485D1*
X3095982Y5324086D1*
X3077220Y5310455D1*
X3056557Y5299927D1*
X3034501Y5292760D1*
X3011595Y5289132D1*
X2988405D1*
X2965499Y5292760D1*
X2943443Y5299927D1*
X2922780Y5310455D1*
X2904018Y5324086D1*
X2887620Y5340485D1*
X2873988Y5359247D1*
X2863460Y5379910D1*
X2856293Y5401966D1*
X2852666Y5424871D1*
Y5448062D1*
X2856293Y5470968D1*
X2863460Y5493023D1*
X2873988Y5513687D1*
X2887620Y5532449D1*
X2897327Y5542662D1*
X2852210Y5542677D1*
Y5838257D1*
X3147790D1*
Y5542677D1*
X3102770D1*
X3119565Y5523335D1*
X3131682Y5503562D1*
X3140557Y5482136D1*
X3145970Y5459586D1*
X3147790Y5436467D1*
X3147334Y5424871D1*
X2046598Y3469290D2*
X2069290D1*
Y3130710D1*
X1730710D1*
Y3469290D1*
X1753406D1*
X1741916Y3493433D1*
X1734638Y3517743D1*
X1731076Y3542868D1*
X1731310Y3568243D1*
X1735334Y3593298D1*
X1743058Y3617470D1*
X1754309Y3640216D1*
X1768833Y3661025D1*
X1786304Y3679429D1*
X1788079Y3680978D1*
X1771271Y3698055D1*
X1755657Y3719546D1*
X1743596Y3743216D1*
X1735387Y3768480D1*
X1731232Y3794718D1*
Y3821282D1*
X1735387Y3847520D1*
X1743596Y3872784D1*
X1755657Y3896454D1*
X1771271Y3917945D1*
X1788110Y3934932D1*
X1770899Y3952492D1*
X1755981Y3973020D1*
X1744298Y3995547D1*
X1736114Y4019567D1*
X1731613Y4044541D1*
X1730895Y4069907D1*
X1733976Y4095095D1*
X1740789Y4119540D1*
X1751178Y4142692D1*
X1764912Y4164031D1*
X1781680Y4183077D1*
X1788079Y4188978D1*
X1771271Y4206055D1*
X1755657Y4227546D1*
X1743596Y4251216D1*
X1735387Y4276480D1*
X1731232Y4302718D1*
Y4329282D1*
X1735387Y4355520D1*
X1743596Y4380784D1*
X1755657Y4404454D1*
X1771271Y4425945D1*
X1788110Y4442932D1*
X1770899Y4460492D1*
X1755981Y4481020D1*
X1744298Y4503547D1*
X1736114Y4527567D1*
X1731613Y4552541D1*
X1730895Y4577907D1*
X1733976Y4603095D1*
X1740789Y4627540D1*
X1751178Y4650692D1*
X1764912Y4672031D1*
X1781680Y4691077D1*
X1801108Y4707402D1*
X1822757Y4720641D1*
X1846142Y4730494D1*
X1870737Y4736742D1*
X1895990Y4739243D1*
X1921333Y4737941D1*
X1946196Y4732865D1*
X1970022Y4724130D1*
X1992274Y4711932D1*
X2012453Y4696545D1*
X2030105Y4678314D1*
X2044833Y4657650D1*
X2056308Y4635016D1*
X2064270Y4610921D1*
X2068541Y4585907D1*
X2069171Y4563651D1*
X2066321Y4538436D1*
X2059735Y4513929D1*
X2049559Y4490683D1*
X2036023Y4469218D1*
X2019430Y4450018D1*
X2011900Y4443004D1*
X2028729Y4425945D1*
X2044343Y4404454D1*
X2056404Y4380784D1*
X2064613Y4355520D1*
X2068768Y4329282D1*
Y4302718D1*
X2064613Y4276480D1*
X2056404Y4251216D1*
X2044343Y4227546D1*
X2028729Y4206055D1*
X2011890Y4189068D1*
X2030105Y4170314D1*
X2044833Y4149650D1*
X2056308Y4127016D1*
X2064270Y4102921D1*
X2068541Y4077907D1*
X2069171Y4055651D1*
X2066321Y4030436D1*
X2059735Y4005929D1*
X2049559Y3982683D1*
X2036023Y3961218D1*
X2019430Y3942018D1*
X2011900Y3935004D1*
X2028729Y3917945D1*
X2044343Y3896454D1*
X2056404Y3872784D1*
X2064613Y3847520D1*
X2068768Y3821282D1*
Y3794718D1*
X2064613Y3768480D1*
X2056404Y3743216D1*
X2044343Y3719546D1*
X2028729Y3698055D1*
X2011890Y3681068D1*
X2030105Y3662314D1*
X2044833Y3641650D1*
X2056308Y3619016D1*
X2064270Y3594921D1*
X2068541Y3569907D1*
X2069171Y3547651D1*
X2066321Y3522436D1*
X2059735Y3497929D1*
X2049559Y3474683D1*
X2046563Y3469282D1*
X1708460Y6323290D2*
X2015290D1*
Y5984710D1*
X1992594D1*
X2002404Y5964784D1*
X2010613Y5939520D1*
X2014768Y5913282D1*
Y5886718D1*
X2010613Y5860480D1*
X2002404Y5835216D1*
X1990343Y5811546D1*
X1974729Y5790055D1*
X1957890Y5773068D1*
X1974729Y5755945D1*
X1990343Y5734454D1*
X2002404Y5710784D1*
X2010613Y5685520D1*
X2014768Y5659282D1*
Y5632718D1*
X2010613Y5606480D1*
X2002404Y5581216D1*
X1990343Y5557546D1*
X1974729Y5536055D1*
X1955945Y5517271D1*
X1934454Y5501657D1*
X1910784Y5489596D1*
X1885520Y5481387D1*
X1859282Y5477232D1*
X1832718D1*
X1806480Y5481387D1*
X1781216Y5489596D1*
X1757546Y5501657D1*
X1736055Y5517271D1*
X1717271Y5536055D1*
X1701657Y5557546D1*
X1689596Y5581216D1*
X1681387Y5606480D1*
X1677232Y5632718D1*
Y5659282D1*
X1681387Y5685520D1*
X1689596Y5710784D1*
X1701657Y5734454D1*
X1717271Y5755945D1*
X1734110Y5772932D1*
X1717271Y5790055D1*
X1701657Y5811546D1*
X1689596Y5835216D1*
X1681486Y5860130D1*
X1676435Y5833634D1*
X1670376Y5812150D1*
X1662650Y5791207D1*
X1653304Y5770935D1*
X1642397Y5751459D1*
X1629995Y5732899D1*
X1616176Y5715368D1*
X1601023Y5698977D1*
X1584632Y5683824D1*
X1567101Y5670005D1*
X1548541Y5657603D1*
X1529065Y5646696D1*
X1508793Y5637350D1*
X1487850Y5629624D1*
X1466366Y5623565D1*
X1444473Y5619210D1*
X1422305Y5616586D1*
X1400000Y5615710D1*
X1377695Y5616586D1*
X1355527Y5619210D1*
X1333634Y5623565D1*
X1312150Y5629624D1*
X1291207Y5637350D1*
X1270935Y5646696D1*
X1251459Y5657603D1*
X1232899Y5670005D1*
X1215368Y5683824D1*
X1198977Y5698977D1*
X1183824Y5715368D1*
X1170005Y5732899D1*
X1157603Y5751459D1*
X1146696Y5770935D1*
X1137350Y5791207D1*
X1129624Y5812150D1*
X1123565Y5833634D1*
X1119210Y5855527D1*
X1116586Y5877695D1*
X1115710Y5900000D1*
X1116586Y5922305D1*
X1119210Y5944473D1*
X1123565Y5966366D1*
X1129624Y5987850D1*
X1144469Y6024235D1*
X1116334Y6035796D1*
X1091677Y6050906D1*
X1081689Y6058780D1*
X1081750Y1341263D1*
X1103709Y1357133D1*
X1129475Y1370262D1*
X1156978Y1379198D1*
X1185541Y1383722D1*
X1214459D1*
X1243022Y1379198D1*
X1270525Y1370262D1*
X1296291Y1357133D1*
X1319687Y1340135D1*
X1340135Y1319687D1*
X1357133Y1296291D1*
X1370262Y1270525D1*
X1379198Y1243022D1*
X1383722Y1214459D1*
Y1185541D1*
X1379198Y1156978D1*
X1370262Y1129475D1*
X1357133Y1103709D1*
X1341220Y1081689D1*
X3368250Y1081750D1*
X3368641Y2504967D1*
X3371710Y2514414D1*
X3377549Y2522451D1*
X3385586Y2528290D1*
X3395033Y2531359D1*
X3431750Y2531750D1*
X4818250D1*
Y6158567D1*
X4796291Y6142867D1*
X4770525Y6129738D1*
X4743022Y6120802D1*
X4714459Y6116278D1*
X4685541D1*
X4656978Y6120802D1*
X4629475Y6129738D1*
X4603709Y6142867D1*
X4580313Y6159865D1*
X4559865Y6180313D1*
X4542867Y6203709D1*
X4529738Y6229475D1*
X4520802Y6256978D1*
X4516278Y6285541D1*
Y6314459D1*
X4520802Y6343022D1*
X4529738Y6370525D1*
X4542867Y6396291D1*
X4559865Y6419687D1*
X4580313Y6440135D1*
X4603709Y6457133D1*
X4629475Y6470262D1*
X4656978Y6479198D1*
X4685541Y6483722D1*
X4714459D1*
X4743022Y6479198D1*
X4770525Y6470262D1*
X4796291Y6457133D1*
X4818311Y6441220D1*
X4818250Y7518250D1*
X1081750D1*
Y6341392D1*
X1103709Y6357133D1*
X1129475Y6370262D1*
X1156978Y6379198D1*
X1185541Y6383722D1*
X1214459D1*
X1243022Y6379198D1*
X1270525Y6370262D1*
X1296291Y6357133D1*
X1319687Y6340135D1*
X1340135Y6319687D1*
X1357133Y6296291D1*
X1370262Y6270525D1*
X1379198Y6243022D1*
X1383722Y6214459D1*
X1383516Y6183801D1*
X1422305Y6183414D1*
X1444473Y6180790D1*
X1466366Y6176435D1*
X1487850Y6170376D1*
X1508793Y6162650D1*
X1529065Y6153304D1*
X1548541Y6142397D1*
X1567101Y6129995D1*
X1584632Y6116176D1*
X1601023Y6101023D1*
X1616176Y6084632D1*
X1629995Y6067101D1*
X1642397Y6048541D1*
X1653304Y6029065D1*
X1662650Y6008793D1*
X1670376Y5987850D1*
X1676435Y5966366D1*
X1681374Y5939537D1*
X1689596Y5964784D1*
X1699551Y5984694D1*
X1676710Y5984710D1*
Y6323290D1*
X1708460D1*
X1683414Y5177695D2*
X1680790Y5155527D1*
X1676435Y5133634D1*
X1670376Y5112150D1*
X1662650Y5091207D1*
X1653304Y5070935D1*
X1642397Y5051459D1*
X1629995Y5032899D1*
X1616176Y5015368D1*
X1601023Y4998977D1*
X1584632Y4983824D1*
X1567101Y4970005D1*
X1535227Y4950147D1*
X1567101Y4929995D1*
X1584632Y4916176D1*
X1601023Y4901023D1*
X1616176Y4884632D1*
X1629995Y4867101D1*
X1642397Y4848541D1*
X1653304Y4829065D1*
X1662650Y4808793D1*
X1670376Y4787850D1*
X1676435Y4766366D1*
X1680790Y4744473D1*
X1683414Y4722305D1*
X1684290Y4700000D1*
X1683414Y4677695D1*
X1680790Y4655527D1*
X1676435Y4633634D1*
X1670376Y4612150D1*
X1662650Y4591207D1*
X1653304Y4570935D1*
X1642397Y4551459D1*
X1629995Y4532899D1*
X1616176Y4515368D1*
X1601023Y4498977D1*
X1584632Y4483824D1*
X1567101Y4470005D1*
X1535227Y4450147D1*
X1561380Y4434045D1*
X1586459Y4414601D1*
X1609215Y4392484D1*
X1629364Y4367968D1*
X1646655Y4341359D1*
X1660872Y4312988D1*
X1671840Y4283210D1*
X1679420Y4252395D1*
X1683519Y4220928D1*
X1684219Y4193651D1*
X1681741Y4162014D1*
X1675752Y4130851D1*
X1666327Y4100549D1*
X1653584Y4071486D1*
X1637682Y4044025D1*
X1618818Y4018507D1*
X1597227Y3995251D1*
X1573179Y3974545D1*
X1546974Y3956649D1*
X1518937Y3941785D1*
X1489418Y3930138D1*
X1458785Y3921854D1*
X1427419Y3917035D1*
X1395712Y3915742D1*
X1364058Y3917991D1*
X1332852Y3923754D1*
X1302483Y3932958D1*
X1273329Y3945490D1*
X1245753Y3961193D1*
X1220099Y3979872D1*
X1196686Y4001293D1*
X1175807Y4025190D1*
X1157721Y4051266D1*
X1142654Y4079194D1*
X1130794Y4108628D1*
X1122288Y4139200D1*
X1117242Y4170530D1*
X1115719Y4202227D1*
X1117738Y4233896D1*
X1123274Y4265143D1*
X1132258Y4295578D1*
X1144578Y4324822D1*
X1160081Y4352511D1*
X1178573Y4378300D1*
X1199824Y4401867D1*
X1223569Y4422919D1*
X1249512Y4441194D1*
X1264674Y4450001D1*
X1232899Y4470005D1*
X1215368Y4483824D1*
X1198977Y4498977D1*
X1183824Y4515368D1*
X1170005Y4532899D1*
X1157603Y4551459D1*
X1146696Y4570935D1*
X1137350Y4591207D1*
X1129624Y4612150D1*
X1123565Y4633634D1*
X1119210Y4655527D1*
X1116586Y4677695D1*
X1115710Y4700000D1*
X1116586Y4722305D1*
X1119210Y4744473D1*
X1123565Y4766366D1*
X1129624Y4787850D1*
X1137350Y4808793D1*
X1146696Y4829065D1*
X1157603Y4848541D1*
X1170005Y4867101D1*
X1183824Y4884632D1*
X1198977Y4901023D1*
X1215368Y4916176D1*
X1232899Y4929995D1*
X1264773Y4949853D1*
X1232899Y4970005D1*
X1215368Y4983824D1*
X1198977Y4998977D1*
X1183824Y5015368D1*
X1170005Y5032899D1*
X1157603Y5051459D1*
X1146696Y5070935D1*
X1137350Y5091207D1*
X1129624Y5112150D1*
X1123565Y5133634D1*
X1119210Y5155527D1*
X1116586Y5177695D1*
X1115710Y5200000D1*
X1116586Y5222305D1*
X1119210Y5244473D1*
X1123565Y5266366D1*
X1129624Y5287850D1*
X1137350Y5308793D1*
X1146696Y5329065D1*
X1157603Y5348541D1*
X1170005Y5367101D1*
X1183824Y5384632D1*
X1198977Y5401023D1*
X1215368Y5416176D1*
X1232899Y5429995D1*
X1251459Y5442397D1*
X1270935Y5453304D1*
X1291207Y5462650D1*
X1312150Y5470376D1*
X1333634Y5476435D1*
X1355527Y5480790D1*
X1377695Y5483414D1*
X1400000Y5484290D1*
X1422305Y5483414D1*
X1444473Y5480790D1*
X1466366Y5476435D1*
X1487850Y5470376D1*
X1508793Y5462650D1*
X1529065Y5453304D1*
X1548541Y5442397D1*
X1567101Y5429995D1*
X1584632Y5416176D1*
X1601023Y5401023D1*
X1616176Y5384632D1*
X1629995Y5367101D1*
X1642397Y5348541D1*
X1653304Y5329065D1*
X1662650Y5308793D1*
X1670376Y5287850D1*
X1676435Y5266366D1*
X1680790Y5244473D1*
X1683414Y5222305D1*
X1684290Y5200000D1*
X1683414Y5177695D1*
X3147334Y6188405D2*
X3143707Y6165499D1*
X3136540Y6143443D1*
X3126012Y6122780D1*
X3112380Y6104018D1*
X3095982Y6087620D1*
X3077220Y6073988D1*
X3056557Y6063460D1*
X3034501Y6056293D1*
X3011595Y6052666D1*
X2988405D1*
X2965499Y6056293D1*
X2943443Y6063460D1*
X2922780Y6073988D1*
X2904018Y6087620D1*
X2887620Y6104018D1*
X2873988Y6122780D1*
X2863460Y6143443D1*
X2856293Y6165499D1*
X2852666Y6188405D1*
Y6211595D1*
X2856293Y6234501D1*
X2863460Y6256557D1*
X2873988Y6277220D1*
X2887620Y6295982D1*
X2904018Y6312380D1*
X2922780Y6326012D1*
X2943443Y6336540D1*
X2965499Y6343707D1*
X2988405Y6347334D1*
X3011595D1*
X3034501Y6343707D1*
X3056557Y6336540D1*
X3077220Y6326012D1*
X3095982Y6312380D1*
X3112380Y6295982D1*
X3126012Y6277220D1*
X3136540Y6256557D1*
X3143707Y6234501D1*
X3147334Y6211595D1*
Y6188405D1*
X3909654Y6193652D2*
X3907613Y6174725D1*
X3903156Y6156217D1*
X3896357Y6138436D1*
X3887329Y6121676D1*
X3876221Y6106216D1*
X3863218Y6092312D1*
X3848536Y6080194D1*
X3832418Y6070065D1*
X3815131Y6062091D1*
X3796963Y6056405D1*
X3778215Y6053102D1*
X3759198Y6052237D1*
X3740228Y6053823D1*
X3721618Y6057834D1*
X3703679Y6064204D1*
X3686707Y6072827D1*
X3670985Y6083561D1*
X3656772Y6096226D1*
X3644306Y6110613D1*
X3633792Y6126484D1*
X3625406Y6143574D1*
X3619286Y6161600D1*
X3615534Y6180263D1*
X3614212Y6199254D1*
X3615342Y6218257D1*
X3618906Y6236958D1*
X3624843Y6255045D1*
X3633057Y6272219D1*
X3643410Y6288194D1*
X3655730Y6302706D1*
X3669814Y6315514D1*
X3685427Y6326406D1*
X3702311Y6335200D1*
X3720185Y6341751D1*
X3738753Y6345950D1*
X3757707Y6347728D1*
X3776732Y6347054D1*
X3795512Y6343940D1*
X3813736Y6338439D1*
X3831102Y6330640D1*
X3847322Y6320673D1*
X3862126Y6308705D1*
X3875268Y6294933D1*
X3886531Y6279585D1*
X3895728Y6262917D1*
X3902707Y6245206D1*
X3907350Y6226744D1*
X3909582Y6207838D1*
X3909654Y6193652D1*
X4454987Y5674290D2*
X4474290D1*
Y5325710D1*
X4125710D1*
Y5674290D1*
X4144934D1*
X4135468Y5696500D1*
X4128862Y5721002D1*
X4125884Y5746204D1*
X4126598Y5771572D1*
X4130988Y5796567D1*
X4138961Y5820659D1*
X4150348Y5843339D1*
X4164908Y5864124D1*
X4180659Y5880986D1*
X4167469Y5894808D1*
X4151393Y5916934D1*
X4138977Y5941302D1*
X4130526Y5967313D1*
X4126247Y5994325D1*
Y6021675D1*
X4130526Y6048687D1*
X4138977Y6074698D1*
X4151393Y6099066D1*
X4167469Y6121192D1*
X4186808Y6140531D1*
X4208934Y6156607D1*
X4233302Y6169023D1*
X4259313Y6177474D1*
X4286325Y6181753D1*
X4313675D1*
X4340687Y6177474D1*
X4366698Y6169023D1*
X4391066Y6156607D1*
X4413192Y6140531D1*
X4432531Y6121192D1*
X4448607Y6099066D1*
X4461023Y6074698D1*
X4469474Y6048687D1*
X4473753Y6021675D1*
Y5994325D1*
X4469474Y5967313D1*
X4461023Y5941302D1*
X4448607Y5916934D1*
X4432531Y5894808D1*
X4419277Y5881093D1*
X4436350Y5862562D1*
X4450670Y5841611D1*
X4461795Y5818802D1*
X4469491Y5794619D1*
X4473593Y5769576D1*
X4474174Y5747651D1*
X4471406Y5722425D1*
X4465004Y5697869D1*
X4454998Y5674305D1*
X2109225Y7193650D2*
X2106946Y7161996D1*
X2101436Y7130742D1*
X2092752Y7100217D1*
X2080986Y7070743D1*
X2066261Y7042630D1*
X2048733Y7016173D1*
X2028586Y6991652D1*
X2010670Y6973553D1*
X2036640Y6985747D1*
X2059424Y6994152D1*
X2082798Y7000744D1*
X2106616Y7005482D1*
X2130733Y7008337D1*
X2155000Y7009290D1*
X2179267Y7008337D1*
X2203384Y7005482D1*
X2222643Y7001651D1*
X2209779Y7018204D1*
X2196287Y7038396D1*
X2184421Y7059585D1*
X2174253Y7081640D1*
X2165848Y7104424D1*
X2159256Y7127798D1*
X2154518Y7151616D1*
X2151663Y7175733D1*
X2150710Y7200000D1*
X2151663Y7224267D1*
X2154518Y7248384D1*
X2159256Y7272202D1*
X2165848Y7295576D1*
X2174253Y7318360D1*
X2184421Y7340415D1*
X2196287Y7361604D1*
X2209779Y7381796D1*
X2224814Y7400868D1*
X2241299Y7418701D1*
X2259132Y7435186D1*
X2278204Y7450221D1*
X2298396Y7463713D1*
X2319585Y7475579D1*
X2341640Y7485747D1*
X2364424Y7494152D1*
X2387798Y7500744D1*
X2411616Y7505482D1*
X2435733Y7508337D1*
X2460000Y7509290D1*
X2484267Y7508337D1*
X2508384Y7505482D1*
X2532202Y7500744D1*
X2555576Y7494152D1*
X2578360Y7485747D1*
X2600415Y7475579D1*
X2621604Y7463713D1*
X2641796Y7450221D1*
X2660868Y7435186D1*
X2678701Y7418701D1*
X2695186Y7400868D1*
X2710221Y7381796D1*
X2723713Y7361604D1*
X2735579Y7340415D1*
X2745747Y7318360D1*
X2754152Y7295576D1*
X2760744Y7272202D1*
X2765482Y7248384D1*
X2768337Y7224267D1*
X2769290Y7200000D1*
X2768337Y7175733D1*
X2765482Y7151616D1*
X2760744Y7127798D1*
X2754152Y7104424D1*
X2745747Y7081640D1*
X2735579Y7059585D1*
X2723713Y7038396D1*
X2710221Y7018204D1*
X2695186Y6999132D1*
X2678701Y6981299D1*
X2660868Y6964814D1*
X2641796Y6949779D1*
X2621604Y6936287D1*
X2600415Y6924421D1*
X2578360Y6914253D1*
X2555576Y6905848D1*
X2532202Y6899256D1*
X2508384Y6894518D1*
X2484267Y6891663D1*
X2460000Y6890710D1*
X2435733Y6891663D1*
X2411616Y6894518D1*
X2392357Y6898349D1*
X2405221Y6881796D1*
X2418713Y6861604D1*
X2430579Y6840415D1*
X2440747Y6818360D1*
X2449152Y6795576D1*
X2455744Y6772202D1*
X2460482Y6748384D1*
X2463337Y6724267D1*
X2464290Y6700000D1*
X2463337Y6675733D1*
X2460482Y6651616D1*
X2455744Y6627798D1*
X2449152Y6604424D1*
X2440747Y6581640D1*
X2430579Y6559585D1*
X2418713Y6538396D1*
X2405221Y6518204D1*
X2390186Y6499132D1*
X2373701Y6481299D1*
X2355868Y6464814D1*
X2336796Y6449779D1*
X2316604Y6436287D1*
X2295415Y6424421D1*
X2273360Y6414253D1*
X2250576Y6405848D1*
X2227202Y6399256D1*
X2203384Y6394518D1*
X2179267Y6391663D1*
X2155000Y6390710D1*
X2130733Y6391663D1*
X2106616Y6394518D1*
X2082798Y6399256D1*
X2059424Y6405848D1*
X2036640Y6414253D1*
X2014585Y6424421D1*
X1993396Y6436287D1*
X1973204Y6449779D1*
X1954132Y6464814D1*
X1936299Y6481299D1*
X1919814Y6499132D1*
X1904779Y6518204D1*
X1891287Y6538396D1*
X1879421Y6559585D1*
X1869253Y6581640D1*
X1860848Y6604424D1*
X1854256Y6627798D1*
X1849518Y6651616D1*
X1846663Y6675733D1*
X1845710Y6700000D1*
X1846663Y6724267D1*
X1849518Y6748384D1*
X1854256Y6772202D1*
X1860848Y6795576D1*
X1869253Y6818360D1*
X1879421Y6840415D1*
X1891287Y6861604D1*
X1904779Y6881796D1*
X1919814Y6900868D1*
X1945146Y6926879D1*
X1914723Y6912774D1*
X1884686Y6902530D1*
X1853757Y6895418D1*
X1822262Y6891512D1*
X1790533Y6890855D1*
X1758903Y6893452D1*
X1727707Y6899278D1*
X1697271Y6908269D1*
X1667917Y6920332D1*
X1639953Y6935339D1*
X1613675Y6953133D1*
X1589358Y6973526D1*
X1567259Y6996304D1*
X1547611Y7021226D1*
X1531700Y7046162D1*
X1509129Y7030077D1*
X1481265Y7015880D1*
X1451523Y7006216D1*
X1420636Y7001324D1*
X1389364D1*
X1358477Y7006216D1*
X1328735Y7015880D1*
X1300871Y7030077D1*
X1275571Y7048459D1*
X1253459Y7070571D1*
X1235077Y7095871D1*
X1220880Y7123735D1*
X1211216Y7153477D1*
X1206324Y7184364D1*
Y7215636D1*
X1211216Y7246523D1*
X1220880Y7276265D1*
X1235077Y7304129D1*
X1253459Y7329429D1*
X1275571Y7351541D1*
X1300871Y7369923D1*
X1328735Y7384120D1*
X1358477Y7393784D1*
X1389364Y7398676D1*
X1420636D1*
X1451523Y7393784D1*
X1481265Y7384120D1*
X1509129Y7369923D1*
X1531596Y7353774D1*
X1551200Y7383736D1*
X1571338Y7408264D1*
X1593883Y7430600D1*
X1618599Y7450507D1*
X1645224Y7467778D1*
X1673479Y7482228D1*
X1703067Y7493708D1*
X1733674Y7502095D1*
X1764980Y7507301D1*
X1796655Y7509272D1*
X1828365Y7507987D1*
X1859777Y7503458D1*
X1890559Y7495735D1*
X1920387Y7484899D1*
X1948948Y7471062D1*
X1975941Y7454372D1*
X2001081Y7435003D1*
X2024105Y7413161D1*
X2044768Y7389073D1*
X2062855Y7362996D1*
X2078174Y7335202D1*
X2090564Y7305984D1*
X2099895Y7275651D1*
X2106069Y7244521D1*
X2109020Y7212923D1*
X2109225Y7193650D1*
X4058799Y7295502D2*
X4054889Y7270814D1*
X4047165Y7247042D1*
X4035817Y7224771D1*
X4021125Y7204549D1*
X4003451Y7186875D1*
X3996046Y7181037D1*
X4012635Y7166635D1*
X4028868Y7147628D1*
X4041928Y7126316D1*
X4051494Y7103223D1*
X4057329Y7078918D1*
X4059290Y7054000D1*
X4057329Y7029082D1*
X4051494Y7004777D1*
X4041928Y6981684D1*
X4028868Y6960372D1*
X4012635Y6941365D1*
X3996046Y6927037D1*
X4012635Y6912635D1*
X4028868Y6893628D1*
X4041928Y6872316D1*
X4051494Y6849223D1*
X4057329Y6824918D1*
X4059290Y6800000D1*
X4057329Y6775082D1*
X4051494Y6750777D1*
X4041928Y6727684D1*
X4028868Y6706372D1*
X4012635Y6687365D1*
X3993628Y6671132D1*
X3972316Y6658072D1*
X3949223Y6648506D1*
X3924918Y6642671D1*
X3900000Y6640710D1*
X3875082Y6642671D1*
X3850777Y6648506D1*
X3827684Y6658072D1*
X3806372Y6671132D1*
X3787365Y6687365D1*
X3771132Y6706372D1*
X3758072Y6727684D1*
X3748506Y6750777D1*
X3742671Y6775082D1*
X3740710Y6800000D1*
X3742671Y6824918D1*
X3748506Y6849223D1*
X3758072Y6872316D1*
X3771132Y6893628D1*
X3787365Y6912635D1*
X3803954Y6926963D1*
X3787365Y6941365D1*
X3771132Y6960372D1*
X3758072Y6981684D1*
X3748506Y7004777D1*
X3742671Y7029082D1*
X3740710Y7054000D1*
X3742671Y7078918D1*
X3748506Y7103223D1*
X3758072Y7126316D1*
X3771132Y7147628D1*
X3787365Y7166635D1*
X3803954Y7180963D1*
X3787365Y7195365D1*
X3771132Y7214372D1*
X3758072Y7235684D1*
X3748506Y7258777D1*
X3742671Y7283082D1*
X3740710Y7308000D1*
X3742671Y7332918D1*
X3748506Y7357223D1*
X3758072Y7380316D1*
X3771132Y7401628D1*
X3787365Y7420635D1*
X3806372Y7436868D1*
X3827684Y7449928D1*
X3850777Y7459494D1*
X3875082Y7465329D1*
X3900000Y7467290D1*
X3924918Y7465329D1*
X3949223Y7459494D1*
X3972316Y7449928D1*
X3993628Y7436868D1*
X4012635Y7420635D1*
X4028868Y7401628D1*
X4041928Y7380316D1*
X4051494Y7357223D1*
X4057329Y7332918D1*
X4059290Y7308000D1*
X4058799Y7295502D1*
X4546861Y7297071D2*
X4543441Y7275483D1*
X4536687Y7254696D1*
X4526764Y7235221D1*
X4513917Y7217538D1*
X4498462Y7202083D1*
X4480779Y7189236D1*
X4461304Y7179313D1*
X4440517Y7172559D1*
X4418929Y7169139D1*
X4397071D1*
X4375483Y7172559D1*
X4354696Y7179313D1*
X4335221Y7189236D1*
X4317538Y7202083D1*
X4302083Y7217538D1*
X4289236Y7235221D1*
X4279313Y7254696D1*
X4272559Y7275483D1*
X4269139Y7297071D1*
Y7318929D1*
X4272559Y7340517D1*
X4279313Y7361304D1*
X4289236Y7380779D1*
X4302083Y7398462D1*
X4317538Y7413917D1*
X4335221Y7426764D1*
X4354696Y7436687D1*
X4375483Y7443441D1*
X4397071Y7446861D1*
X4418929D1*
X4440517Y7443441D1*
X4461304Y7436687D1*
X4480779Y7426764D1*
X4498462Y7413917D1*
X4513917Y7398462D1*
X4526764Y7380779D1*
X4536687Y7361304D1*
X4543441Y7340517D1*
X4546861Y7318929D1*
Y7297071D1*
Y6789071D2*
X4543441Y6767483D1*
X4536687Y6746696D1*
X4526764Y6727221D1*
X4513917Y6709538D1*
X4498462Y6694083D1*
X4480779Y6681236D1*
X4461304Y6671313D1*
X4440517Y6664559D1*
X4418929Y6661139D1*
X4397071D1*
X4375483Y6664559D1*
X4354696Y6671313D1*
X4335221Y6681236D1*
X4317538Y6694083D1*
X4302083Y6709538D1*
X4289236Y6727221D1*
X4279313Y6746696D1*
X4272559Y6767483D1*
X4269139Y6789071D1*
Y6810929D1*
X4272559Y6832517D1*
X4279313Y6853304D1*
X4289236Y6872779D1*
X4302083Y6890462D1*
X4317538Y6905917D1*
X4335221Y6918764D1*
X4354696Y6928687D1*
X4375483Y6935441D1*
X4397071Y6938861D1*
X4418929D1*
X4440517Y6935441D1*
X4461304Y6928687D1*
X4480779Y6918764D1*
X4498462Y6905917D1*
X4513917Y6890462D1*
X4526764Y6872779D1*
X4536687Y6853304D1*
X4543441Y6832517D1*
X4546861Y6810929D1*
Y6789071D1*
X3648067Y5500000D2*
D17*
X3812233D1*
X1730834Y3554000D2*
X2069166D1*
X1730834Y4062000D2*
X2069166D1*
X1730834Y4570000D2*
X2069166D1*
X1115834Y4200000D2*
X1684166D1*
X3614334Y6200000D2*
X3909666D1*
X4125834Y5754000D2*
X4474166D1*
X1800000Y7200000D2*
X2109166D1*
X3338100Y2505083D2*
D16*
X4811883D1*
X3338100Y2441917D2*
X4811883D1*
X3338100Y2378750D2*
X4811883D1*
X3338100Y2315583D2*
X4811883D1*
X3338100Y2252417D2*
X4811883D1*
X3338100Y2189250D2*
X4811883D1*
X3338100Y2126083D2*
X4811883D1*
X3338100Y2062917D2*
X4811883D1*
X3338100Y1999750D2*
X4811883D1*
X3338100Y1936583D2*
X3714400D1*
X4085651D2*
X4214338D1*
X4585590D2*
X4811883D1*
X3338100Y1873417D2*
X3714400D1*
X4585590D2*
X4811883D1*
X3338100Y1810250D2*
X3714400D1*
X4585590D2*
X4811883D1*
X3338100Y1747083D2*
X3714400D1*
X4585590D2*
X4811883D1*
X3338100Y1683917D2*
X3714400D1*
X4585590D2*
X4811883D1*
X3338100Y1620750D2*
X3705222D1*
X4594767D2*
X4811883D1*
X3338100Y1557583D2*
X3663178D1*
X4636811D2*
X4811883D1*
X3338100Y1494417D2*
X3643210D1*
X4656779D2*
X4811883D1*
X3338100Y1431250D2*
X3640109D1*
X4660004D2*
X4811883D1*
X3338100Y1368083D2*
X3652884D1*
X3338100Y1304917D2*
X3684758D1*
X4115169D2*
X4184820D1*
X3338100Y1241750D2*
X3747762D1*
X4052289D2*
X4247700D1*
X3338100Y1178583D2*
X4490538D1*
X3338100Y1115417D2*
X4507653D1*
X4654211Y1443651D2*
X4651441Y1412042D1*
X4648851Y1397767D1*
X4668042Y1401775D1*
X4700000Y1404290D1*
X4731958Y1401775D1*
X4763129Y1394291D1*
X4792746Y1382024D1*
X4818255Y1366492D1*
X4818250Y2568250D1*
X3331750D1*
Y1081750D1*
X4533413D1*
X4517976Y1107254D1*
X4505709Y1136871D1*
X4498225Y1168042D1*
X4495710Y1200000D1*
X4496283Y1214588D1*
X4468385Y1205078D1*
X4437352Y1198468D1*
X4405737Y1195775D1*
X4374033Y1197039D1*
X4342733Y1202242D1*
X4312325Y1211303D1*
X4283282Y1224079D1*
X4256056Y1240373D1*
X4231071Y1259931D1*
X4208716Y1282448D1*
X4189339Y1307573D1*
X4173242Y1334916D1*
X4160676Y1364051D1*
X4151835Y1394524D1*
X4150010Y1403543D1*
X4142958Y1374935D1*
X4131719Y1345263D1*
X4116872Y1317222D1*
X4098648Y1291248D1*
X4077332Y1267745D1*
X4053255Y1247080D1*
X4026791Y1229575D1*
X3998354Y1215501D1*
X3968385Y1205078D1*
X3937352Y1198468D1*
X3905737Y1195775D1*
X3874033Y1197039D1*
X3842733Y1202242D1*
X3812325Y1211303D1*
X3783282Y1224079D1*
X3756056Y1240373D1*
X3731071Y1259931D1*
X3708716Y1282448D1*
X3689339Y1307573D1*
X3673242Y1334916D1*
X3660676Y1364051D1*
X3651835Y1394524D1*
X3646858Y1425861D1*
X3645823Y1457573D1*
X3648745Y1489168D1*
X3655578Y1520153D1*
X3666217Y1550045D1*
X3680496Y1578380D1*
X3698192Y1604716D1*
X3719031Y1628644D1*
X3720707Y1630300D1*
X3720710Y1954290D1*
X4079290D1*
Y1891658D1*
X4102309Y1898645D1*
X4133972Y1903660D1*
X4166028D1*
X4197691Y1898645D1*
X4220713Y1891494D1*
X4220710Y1954290D1*
X4579290D1*
Y1630316D1*
X4600168Y1606832D1*
X4618140Y1580684D1*
X4632717Y1552500D1*
X4643670Y1522722D1*
X4650829Y1491810D1*
X4654083Y1460248D1*
X4654211Y1443651D1*
X4400000Y1450000D2*
D17*
Y1195834D1*
Y1450000D2*
X4654166D1*
X4400000Y1954166D2*
Y1700000D1*
X4579166D1*
X3900000Y1954166D2*
Y1700000D1*
X3720834D2*
X3900000D1*
Y1450000D2*
Y1195834D1*
X3645834Y1450000D2*
X3900000D1*
D18*
X3394067Y5500000D3*
D19*
X3648067D3*
D18*
X2105933Y5100000D3*
D19*
X1851933D3*
D20*
X3000000Y5436467D3*
D21*
Y5690467D3*
D22*
X1900000Y3300000D3*
D23*
Y3554000D3*
Y3808000D3*
Y4062000D3*
Y4316000D3*
Y4570000D3*
D22*
X1846000Y6154000D3*
D23*
Y5900000D3*
Y5646000D3*
D24*
X1400000Y5900000D3*
Y5200000D3*
Y4700000D3*
Y4200000D3*
D20*
X3000000Y6200000D3*
D25*
X3762000D3*
D26*
X4300000Y5500000D3*
D27*
Y6008000D3*
Y5754000D3*
D28*
X1800000Y7200000D3*
X2155000Y6700000D3*
X2460000Y7200000D3*
D30*
X4400000Y1450000D3*
D31*
Y1700000D3*
X3900000D3*
D30*
Y1450000D3*
D32*
X4150000Y1700000D3*
D14*
X3900000Y7308000D3*
Y7054000D3*
Y6800000D3*
M02*
