M48
METRIC,0000.00
T01C0.559
T02C0.711
T03C0.9
T04C1.0
T05C1.1
T06C1.2
T07C1.5
T08C2.0
T09C2.3
T10C2.5
T11C3.2
%
T01
X+003000Y+006200
X+003762Y+006200
T02
X+003000Y+005436
X+003000Y+005690
T03
X+003394Y+005500
X+003648Y+005500
X+003900Y+006800
X+003900Y+007054
X+003900Y+007308
X+002106Y+005100
X+001852Y+005100
T04
X+004150Y+001700
T05
X+001900Y+003300
X+001900Y+003554
X+001900Y+003808
X+001900Y+004062
X+001900Y+004316
X+001900Y+004570
X+001846Y+005646
X+001846Y+005900
X+001846Y+006154
X+004408Y+006800
X+004408Y+007308
T06
X+004300Y+005500
X+004300Y+005754
X+004300Y+006008
T07
X+004400Y+001450
X+004400Y+001700
X+003900Y+001700
X+003900Y+001450
T08
X+001200Y+001200
X+004700Y+001200
X+004700Y+006300
X+001200Y+006200
T09
X+001405Y+007200
T10
X+001400Y+005900
X+001400Y+005200
X+001400Y+004700
X+001400Y+004200
T11
X+001800Y+007200
X+002155Y+006700
X+002460Y+007200
T00
M30
