G04 DipTrace 3.0.0.2*
G04 Top.gbr*
%MOMM*%
G04 #@! TF.FileFunction,Copper,L1,Top*
G04 #@! TF.Part,Single*
G04 #@! TA.AperFunction,Conductor*
%ADD13C,0.5*%
G04 #@! TA.AperFunction,ComponentPad*
%ADD14C,1.5*%
G04 #@! TA.AperFunction,Conductor*
%ADD15C,1.0*%
G04 #@! TA.AperFunction,CopperBalancing*
%ADD16C,0.635*%
%ADD17C,0.33*%
G04 #@! TA.AperFunction,ComponentPad*
%ADD18R,1.8X1.8*%
%ADD19C,1.8*%
%ADD20C,4.5*%
%ADD21R,1.6X1.6*%
%ADD22C,1.6*%
%ADD23R,1.6X3.0*%
G04 #@! TA.AperFunction,ComponentPad*
%ADD24C,1.27*%
%ADD25R,1.27X1.27*%
%ADD26C,3.0*%
%ADD27R,1.5X3.0*%
%ADD28C,2.0*%
%ADD29R,1.7X1.7*%
%ADD30C,1.7*%
%ADD31C,1.27*%
%ADD32C,4.0*%
%FSLAX35Y35*%
G04*
G71*
G90*
G75*
G01*
G04 Top*
%LPD*%
X3539757Y4968617D2*
D13*
Y5139757D1*
X3648067Y5248067D1*
Y5500000D1*
X2269757Y4968617D2*
Y4600000D1*
X1930000D1*
X1900000Y4570000D1*
X3539757Y4968617D2*
Y4860243D1*
X3500000Y4900000D1*
Y4600000D1*
X2269757D1*
X1900000Y4062000D2*
X1738000D1*
X1700000Y4100000D1*
Y4500000D1*
X1800000Y4600000D1*
X1870000D1*
X1900000Y4570000D1*
Y3554000D2*
X1746000D1*
X1700000Y3600000D1*
Y3854673D1*
Y4100000D1*
X1800000Y7200000D2*
Y6700000D1*
X1600000Y6500000D1*
X1200000D1*
X1100000Y6400000D1*
Y4500000D1*
X1400000Y4200000D1*
Y4154673D1*
X1700000Y3854673D1*
X4300000Y1500000D2*
D14*
Y2600000D1*
X3793757D1*
Y2168617D1*
X3800000Y1500000D2*
Y2600000D1*
X4301757D1*
Y2168617D1*
X3793757D2*
D13*
X2431383D1*
X1700000Y2900000D1*
Y3600000D1*
X4200000Y5754000D2*
X3879000D1*
X3648067Y5523067D1*
Y5500000D1*
X2460000Y7200000D2*
D15*
X3400000D1*
X3508000Y7308000D1*
X3900000D1*
X2850000Y5550000D2*
X3285757D1*
X3394067Y5500000D1*
X3285757Y4968617D2*
Y5550000D1*
X3394067Y5500000D2*
X3325000D1*
X3775000Y5950000D1*
X4142000D1*
X4200000Y6008000D1*
X4050000Y1500000D2*
D14*
Y2168617D1*
X4047757D1*
X1900000Y3300000D2*
D13*
X3300000D1*
X4301757Y4301757D1*
Y4968617D1*
X4047757D2*
Y4347757D1*
X3500000Y3800000D1*
X1908000D1*
X1900000Y3808000D1*
Y4316000D2*
X3616000D1*
X3800000Y4500000D1*
Y4962373D1*
X3793757Y4968617D1*
X2850000Y5804000D2*
Y6200000D1*
X3000000D1*
X2000000D2*
X2060000D1*
X2380000Y5880000D1*
Y5730000D1*
X2810000Y5300000D1*
X3000000D1*
Y4936860D1*
X3031757Y4968617D1*
X2000000Y6200000D2*
X1800000D1*
X1400000Y5800000D1*
X2777757Y4968617D2*
Y5122243D1*
X2270000Y5630000D1*
Y5710000D1*
X2034000Y5946000D1*
X2000000D1*
X1400000Y5346000D1*
Y5200000D1*
X2040000D2*
Y5240000D1*
X2500000D1*
Y4944860D1*
X2523757Y4968617D1*
X3900000Y7054000D2*
D15*
X4046000D1*
X4200000Y6900000D1*
Y6500000D1*
X4410000Y6290000D1*
Y5710000D1*
X4200000Y5500000D1*
X2000000Y5692000D2*
D13*
X1960000D1*
Y5550000D1*
X1780000Y5370000D1*
Y5200000D1*
X1786000D1*
Y5086000D1*
X1400000Y4700000D1*
X1088100Y7455083D2*
D16*
X1618683D1*
X1981253D2*
X2278737D1*
X2641307D2*
X3832503D1*
X3967490D2*
X4811917D1*
X1088100Y7391917D2*
X1344963D1*
X1465070D2*
X1551093D1*
X2048847D2*
X2211143D1*
X2708900D2*
X3395693D1*
X4041780D2*
X4290520D1*
X4525470D2*
X4811917D1*
X1088100Y7328750D2*
X1246490D1*
X2087543D2*
X2172450D1*
X4064230D2*
X4263857D1*
X4552137D2*
X4811917D1*
X1088100Y7265583D2*
X1210400D1*
X2108627D2*
X2151330D1*
X4059887D2*
X4268940D1*
X4547050D2*
X4811917D1*
X1088100Y7202417D2*
X1199360D1*
X4025657D2*
X4310860D1*
X4505257D2*
X4811917D1*
X1088100Y7139250D2*
X1208787D1*
X2109620D2*
X2150483D1*
X3535517D2*
X3759080D1*
X4156997D2*
X4811917D1*
X1088100Y7076083D2*
X1242520D1*
X2089777D2*
X2170217D1*
X3458003D2*
X3735890D1*
X4220127D2*
X4811917D1*
X1088100Y7012917D2*
X1329957D1*
X1480077D2*
X1547370D1*
X2052693D2*
X2207300D1*
X2712620D2*
X3739733D1*
X4283253D2*
X4811917D1*
X1088100Y6949750D2*
X1611863D1*
X2648130D2*
X3773220D1*
X4331003D2*
X4811917D1*
X1088100Y6886583D2*
X1901953D1*
X2408020D2*
X3759950D1*
X4523487D2*
X4811917D1*
X1088100Y6823417D2*
X1864997D1*
X2444980D2*
X3736137D1*
X4551640D2*
X4811917D1*
X1088100Y6760250D2*
X1845277D1*
X2464697D2*
X3739360D1*
X4547797D2*
X4811917D1*
X1088100Y6697083D2*
X1839323D1*
X2470650D2*
X3772103D1*
X4508233D2*
X4811917D1*
X1088100Y6633917D2*
X1846517D1*
X2463457D2*
X4059343D1*
X4340553D2*
X4811917D1*
X1088100Y6570750D2*
X1867600D1*
X2442373D2*
X4059343D1*
X4340553D2*
X4811917D1*
X1088100Y6507583D2*
X1906543D1*
X2403553D2*
X4059343D1*
X4388673D2*
X4811917D1*
X1088100Y6444417D2*
X1974507D1*
X2335467D2*
X4071497D1*
X4451800D2*
X4811917D1*
X1088100Y6381250D2*
X1260257D1*
X1339680D2*
X4122593D1*
X4514807D2*
X4660360D1*
X4739660D2*
X4811917D1*
X1088100Y6318083D2*
X1152110D1*
X1447830D2*
X1824317D1*
X2175600D2*
X2904807D1*
X3095233D2*
X3666807D1*
X3857233D2*
X4185723D1*
X1482310Y6254917D2*
X1694090D1*
X2175600D2*
X2749157D1*
X3143603D2*
X3618440D1*
X3905603D2*
X4248850D1*
X1490493Y6191750D2*
X1630840D1*
X2229053D2*
X2734400D1*
X3153897D2*
X3608143D1*
X3915897D2*
X4269437D1*
X1088100Y6128583D2*
X1123707D1*
X1476230D2*
X1567710D1*
X2292307D2*
X2734400D1*
X3135790D2*
X3626253D1*
X3897790D2*
X4067777D1*
X1088100Y6065417D2*
X1167737D1*
X2355433D2*
X2734400D1*
X3067453D2*
X3694590D1*
X1088100Y6002250D2*
X1193903D1*
X2418560D2*
X2734400D1*
X2965630D2*
X3631090D1*
X4550650D2*
X4811917D1*
X1088100Y5939083D2*
X1145660D1*
X2478217D2*
X2695827D1*
X3004200D2*
X3567837D1*
X4550650D2*
X4811917D1*
X2495580Y5875917D2*
X2695827D1*
X3004200D2*
X3504710D1*
X4550650D2*
X4811917D1*
X2495580Y5812750D2*
X2695827D1*
X3004200D2*
X3441580D1*
X3833917D2*
X4029577D1*
X4550650D2*
X4811917D1*
X2521253Y5749583D2*
X2695827D1*
X3004200D2*
X3378330D1*
X3770790D2*
X4019407D1*
X4550650D2*
X4811917D1*
X1088100Y5686417D2*
X1133010D1*
X2584503D2*
X2695827D1*
X3004200D2*
X3315200D1*
X3707660D2*
X4033050D1*
X4548540D2*
X4811917D1*
X1088100Y5623250D2*
X1170960D1*
X2647633D2*
X2715300D1*
X3763100D2*
X4019407D1*
X4518773D2*
X4811917D1*
X1088100Y5560083D2*
X1241157D1*
X3807377D2*
X4019407D1*
X4456267D2*
X4811917D1*
X1088100Y5496917D2*
X1390110D1*
X3818663D2*
X4019407D1*
X4393140D2*
X4811917D1*
X1088100Y5433750D2*
X1231857D1*
X3804770D2*
X4019407D1*
X4380613D2*
X4811917D1*
X1088100Y5370583D2*
X1166247D1*
X3755657D2*
X4019407D1*
X4380613D2*
X4811917D1*
X1088100Y5307417D2*
X1130403D1*
X3426377D2*
X4811917D1*
X3426377Y5244250D2*
X4811917D1*
X4472390Y5181083D2*
X4811917D1*
X1088100Y5117917D2*
X1121473D1*
X4472390D2*
X4811917D1*
X1088100Y5054750D2*
X1149257D1*
X4472390D2*
X4811917D1*
X1088100Y4991583D2*
X1200353D1*
X1852393D2*
X2099150D1*
X4472390D2*
X4811917D1*
X1088100Y4928417D2*
X1224413D1*
X1789267D2*
X2099150D1*
X4472390D2*
X4811917D1*
X1088100Y4865250D2*
X1162280D1*
X1726140D2*
X2099150D1*
X4472390D2*
X4811917D1*
X1088100Y4802083D2*
X1128297D1*
X1671693D2*
X2099150D1*
X4472390D2*
X4811917D1*
X1687940Y4738917D2*
X1882360D1*
X1917553D2*
X2099150D1*
X4472390D2*
X4811917D1*
X1689550Y4675750D2*
X1761437D1*
X2038553D2*
X3684420D1*
X4417323D2*
X4811917D1*
X1088100Y4612583D2*
X1123087D1*
X1676900D2*
X1729810D1*
X2070180D2*
X3684420D1*
X4417323D2*
X4811917D1*
X1088100Y4549417D2*
X1152480D1*
X1647507D2*
X1725593D1*
X2074397D2*
X3684420D1*
X4417323D2*
X4811917D1*
X1088100Y4486250D2*
X1206183D1*
X1593807D2*
X1746553D1*
X2053437D2*
X3625383D1*
X4417323D2*
X4811917D1*
X1088100Y4423083D2*
X1217470D1*
X1582520D2*
X1762553D1*
X3883900D2*
X3932057D1*
X4417323D2*
X4811917D1*
X1088100Y4359917D2*
X1158557D1*
X1641430D2*
X1730183D1*
X3820770D2*
X3899103D1*
X4417323D2*
X4811917D1*
X1088100Y4296750D2*
X1126310D1*
X1673677D2*
X1725470D1*
X3757643D2*
X3835850D1*
X4417200D2*
X4811917D1*
X1688683Y4233583D2*
X1745810D1*
X3694020D2*
X3772723D1*
X4393510D2*
X4811917D1*
X1689057Y4170417D2*
X1763667D1*
X2036320D2*
X3709597D1*
X4331250D2*
X4811917D1*
X1088100Y4107250D2*
X1124947D1*
X1675040D2*
X1730553D1*
X2069437D2*
X3646343D1*
X4268123D2*
X4811917D1*
X1088100Y4044083D2*
X1155953D1*
X1644037D2*
X1725343D1*
X2074643D2*
X3583217D1*
X4204997D2*
X4811917D1*
X1088100Y3980917D2*
X1212507D1*
X1587480D2*
X1745063D1*
X2054923D2*
X3520087D1*
X4141743D2*
X4811917D1*
X1088100Y3917750D2*
X1359600D1*
X1440390D2*
X1764783D1*
X2035203D2*
X3456837D1*
X4078617D2*
X4811917D1*
X1088100Y3854583D2*
X1730927D1*
X4015487D2*
X4811917D1*
X1088100Y3791417D2*
X1725220D1*
X3952237D2*
X4811917D1*
X1088100Y3728250D2*
X1744320D1*
X3889107D2*
X4811917D1*
X1088100Y3665083D2*
X1765900D1*
X2034090D2*
X3504213D1*
X3825980D2*
X4811917D1*
X1088100Y3601917D2*
X1731297D1*
X2068690D2*
X3441087D1*
X3762727D2*
X4811917D1*
X1088100Y3538750D2*
X1725097D1*
X2074893D2*
X3377833D1*
X3699600D2*
X4811917D1*
X1088100Y3475583D2*
X1743577D1*
X2056413D2*
X3314707D1*
X3636470D2*
X4811917D1*
X1088100Y3412417D2*
X1724353D1*
X2075637D2*
X3251577D1*
X3573220D2*
X4811917D1*
X1088100Y3349250D2*
X1724353D1*
X3510093D2*
X4811917D1*
X1088100Y3286083D2*
X1724353D1*
X3446963D2*
X4811917D1*
X1088100Y3222917D2*
X1724353D1*
X3383837D2*
X4811917D1*
X1088100Y3159750D2*
X1724353D1*
X2075637D2*
X4811917D1*
X1088100Y3096583D2*
X4811917D1*
X1088100Y3033417D2*
X4811917D1*
X1088100Y2970250D2*
X4811917D1*
X1088100Y2907083D2*
X4811917D1*
X1088100Y2843917D2*
X4811917D1*
X1088100Y2780750D2*
X4811917D1*
X1088100Y2717583D2*
X4811917D1*
X1088100Y2654417D2*
X4811917D1*
X1088100Y2591250D2*
X4811917D1*
X1088100Y2528083D2*
X3361957D1*
X1088100Y2464917D2*
X3361957D1*
X1088100Y2401750D2*
X3361957D1*
X1088100Y2338583D2*
X3361957D1*
X1088100Y2275417D2*
X3361957D1*
X1088100Y2212250D2*
X3361957D1*
X1088100Y2149083D2*
X3361957D1*
X1088100Y2085917D2*
X3361957D1*
X1088100Y2022750D2*
X3361957D1*
X1088100Y1959583D2*
X3361957D1*
X1088100Y1896417D2*
X3361957D1*
X1088100Y1833250D2*
X3361957D1*
X1088100Y1770083D2*
X3361957D1*
X1088100Y1706917D2*
X3361957D1*
X1088100Y1643750D2*
X3361957D1*
X1088100Y1580583D2*
X3361957D1*
X1088100Y1517417D2*
X3361957D1*
X1088100Y1454250D2*
X3361957D1*
X1088100Y1391083D2*
X3361957D1*
X1088100Y1327917D2*
X1161037D1*
X1439023D2*
X3361957D1*
X1088100Y1264750D2*
X1121103D1*
X1478837D2*
X3361957D1*
X1490617Y1201583D2*
X3361957D1*
X1088100Y1138417D2*
X1119987D1*
X1480077D2*
X3361957D1*
X4374290Y5484410D2*
Y5325710D1*
X4025710D1*
Y5674290D1*
X4044933D1*
X4035467Y5696500D1*
X4028863Y5721003D1*
X4025883Y5746203D1*
X4026597Y5771573D1*
X4030987Y5796567D1*
X4037030Y5815743D1*
X3830577Y5815710D1*
X3676760Y5661843D1*
X3698540Y5656347D1*
X3722013Y5646707D1*
X3743720Y5633570D1*
X3763150Y5617250D1*
X3779833Y5598130D1*
X3793370Y5576667D1*
X3803443Y5553377D1*
X3809810Y5528813D1*
X3812317Y5503563D1*
X3811253Y5480993D1*
X3806380Y5456090D1*
X3797730Y5432237D1*
X3785510Y5409997D1*
X3770010Y5389907D1*
X3751603Y5372440D1*
X3730727Y5358020D1*
X3707877Y5346983D1*
X3683600Y5339600D1*
X3658477Y5336040D1*
X3633103Y5336393D1*
X3608087Y5340650D1*
X3584027Y5348707D1*
X3561493Y5360370D1*
X3558347Y5362407D1*
X3558357Y5335710D1*
X3420070D1*
X3420047Y5202860D1*
X4466047Y5202907D1*
Y4734327D1*
X4411103D1*
X4410710Y4293183D1*
X4408027Y4276243D1*
X4402727Y4259933D1*
X4394943Y4244653D1*
X4384860Y4230777D1*
X4266783Y4112223D1*
X3370977Y3216897D1*
X3357103Y3206813D1*
X3341823Y3199030D1*
X3325513Y3193730D1*
X3308573Y3191047D1*
X3141250Y3190710D1*
X2069317D1*
X2069290Y3130710D1*
X1730710D1*
Y3469290D1*
X1753407D1*
X1741917Y3493433D1*
X1734637Y3517743D1*
X1731077Y3542867D1*
X1731310Y3568243D1*
X1735333Y3593297D1*
X1743060Y3617470D1*
X1754310Y3640217D1*
X1768833Y3661023D1*
X1786303Y3679430D1*
X1788080Y3680977D1*
X1771270Y3698053D1*
X1755657Y3719547D1*
X1743597Y3743217D1*
X1735387Y3768480D1*
X1731233Y3794717D1*
Y3821283D1*
X1735387Y3847520D1*
X1743597Y3872783D1*
X1755657Y3896453D1*
X1771270Y3917947D1*
X1788110Y3934930D1*
X1770900Y3952493D1*
X1755980Y3973020D1*
X1744297Y3995547D1*
X1736113Y4019567D1*
X1731613Y4044540D1*
X1730893Y4069907D1*
X1733977Y4095097D1*
X1740790Y4119540D1*
X1751177Y4142693D1*
X1764910Y4164030D1*
X1781680Y4183077D1*
X1788080Y4188977D1*
X1771270Y4206053D1*
X1755657Y4227547D1*
X1743597Y4251217D1*
X1735387Y4276480D1*
X1731233Y4302717D1*
Y4329283D1*
X1735387Y4355520D1*
X1743597Y4380783D1*
X1755657Y4404453D1*
X1771270Y4425947D1*
X1788110Y4442930D1*
X1770900Y4460493D1*
X1755980Y4481020D1*
X1744297Y4503547D1*
X1736113Y4527567D1*
X1731613Y4552540D1*
X1730893Y4577907D1*
X1733977Y4603097D1*
X1740790Y4627540D1*
X1751177Y4650693D1*
X1764910Y4672030D1*
X1781680Y4691077D1*
X1801107Y4707403D1*
X1822757Y4720640D1*
X1846143Y4730493D1*
X1870737Y4736743D1*
X1895990Y4739243D1*
X1921333Y4737940D1*
X1946197Y4732867D1*
X1970020Y4724130D1*
X1992273Y4711933D1*
X2012453Y4696543D1*
X2030103Y4678313D1*
X2044833Y4657650D1*
X2056307Y4635017D1*
X2064270Y4610920D1*
X2068540Y4585907D1*
X2069170Y4563650D1*
X2066320Y4538437D1*
X2059733Y4513930D1*
X2049560Y4490683D1*
X2036023Y4469220D1*
X2019430Y4450020D1*
X2011900Y4443003D1*
X2029277Y4425253D1*
X3570720Y4425290D1*
X3690700Y4545260D1*
X3690710Y4734280D1*
X2613467Y4734327D1*
X2105467D1*
Y5035727D1*
X1883027Y5035710D1*
X1874417Y5021760D1*
X1863280Y5008720D1*
X1662890Y4808330D1*
X1670377Y4787850D1*
X1676437Y4766367D1*
X1680790Y4744473D1*
X1683413Y4722307D1*
X1684290Y4700000D1*
X1683413Y4677693D1*
X1680790Y4655527D1*
X1676437Y4633633D1*
X1670377Y4612150D1*
X1662650Y4591207D1*
X1653303Y4570937D1*
X1642397Y4551460D1*
X1629997Y4532900D1*
X1616177Y4515370D1*
X1601023Y4498977D1*
X1584630Y4483823D1*
X1567100Y4470003D1*
X1535227Y4450147D1*
X1561380Y4434047D1*
X1586460Y4414600D1*
X1609213Y4392483D1*
X1629363Y4367967D1*
X1646653Y4341360D1*
X1660873Y4312990D1*
X1671840Y4283210D1*
X1679420Y4252397D1*
X1683520Y4220927D1*
X1684220Y4193650D1*
X1681740Y4162013D1*
X1675753Y4130850D1*
X1666327Y4100550D1*
X1653583Y4071487D1*
X1637683Y4044027D1*
X1618817Y4018507D1*
X1597227Y3995250D1*
X1573180Y3974547D1*
X1546973Y3956650D1*
X1518937Y3941787D1*
X1489417Y3930140D1*
X1458783Y3921853D1*
X1427420Y3917037D1*
X1395713Y3915743D1*
X1364057Y3917990D1*
X1332853Y3923753D1*
X1302483Y3932960D1*
X1273330Y3945490D1*
X1245753Y3961193D1*
X1220100Y3979873D1*
X1196687Y4001293D1*
X1175807Y4025190D1*
X1157720Y4051267D1*
X1142653Y4079193D1*
X1130793Y4108627D1*
X1122287Y4139200D1*
X1117240Y4170530D1*
X1115720Y4202227D1*
X1117737Y4233897D1*
X1123273Y4265143D1*
X1132257Y4295577D1*
X1144577Y4324823D1*
X1160080Y4352510D1*
X1178573Y4378300D1*
X1199823Y4401867D1*
X1223570Y4422920D1*
X1249513Y4441193D1*
X1264673Y4450000D1*
X1232900Y4470003D1*
X1215370Y4483823D1*
X1198977Y4498977D1*
X1183823Y4515370D1*
X1170003Y4532900D1*
X1157603Y4551460D1*
X1146697Y4570937D1*
X1137350Y4591207D1*
X1129623Y4612150D1*
X1123563Y4633633D1*
X1119210Y4655527D1*
X1116587Y4677693D1*
X1115710Y4700000D1*
X1116587Y4722307D1*
X1119210Y4744473D1*
X1123563Y4766367D1*
X1129623Y4787850D1*
X1137350Y4808793D1*
X1146697Y4829063D1*
X1157603Y4848540D1*
X1170003Y4867100D1*
X1183823Y4884630D1*
X1198977Y4901023D1*
X1215370Y4916177D1*
X1232900Y4929997D1*
X1264773Y4949853D1*
X1232900Y4970003D1*
X1215370Y4983823D1*
X1198977Y4998977D1*
X1183823Y5015370D1*
X1170003Y5032900D1*
X1157603Y5051460D1*
X1146697Y5070937D1*
X1137350Y5091207D1*
X1129623Y5112150D1*
X1123563Y5133633D1*
X1119210Y5155527D1*
X1116587Y5177693D1*
X1115710Y5200000D1*
X1116587Y5222307D1*
X1119210Y5244473D1*
X1123563Y5266367D1*
X1129623Y5287850D1*
X1137350Y5308793D1*
X1146697Y5329063D1*
X1157603Y5348540D1*
X1170003Y5367100D1*
X1183823Y5384630D1*
X1198977Y5401023D1*
X1215370Y5416177D1*
X1232900Y5429997D1*
X1251460Y5442397D1*
X1270937Y5453303D1*
X1291207Y5462650D1*
X1312150Y5470377D1*
X1333633Y5476437D1*
X1355527Y5480790D1*
X1383183Y5483630D1*
X1415593Y5516153D1*
X1377693Y5516587D1*
X1355527Y5519210D1*
X1333633Y5523563D1*
X1312150Y5529623D1*
X1291207Y5537350D1*
X1270937Y5546697D1*
X1251460Y5557603D1*
X1232900Y5570003D1*
X1215370Y5583823D1*
X1198977Y5598977D1*
X1183823Y5615370D1*
X1170003Y5632900D1*
X1157603Y5651460D1*
X1146697Y5670937D1*
X1137350Y5691207D1*
X1129623Y5712150D1*
X1123563Y5733633D1*
X1119210Y5755527D1*
X1116587Y5777693D1*
X1115710Y5800000D1*
X1116587Y5822307D1*
X1119210Y5844473D1*
X1123563Y5866367D1*
X1129623Y5887850D1*
X1137350Y5908793D1*
X1146697Y5929063D1*
X1157603Y5948540D1*
X1170003Y5967100D1*
X1183823Y5984630D1*
X1198977Y6001023D1*
X1215370Y6016177D1*
X1231460Y6028863D1*
X1203710Y6042867D1*
X1180313Y6059863D1*
X1159863Y6080313D1*
X1142867Y6103710D1*
X1129737Y6129477D1*
X1120803Y6156980D1*
X1116277Y6185540D1*
Y6214460D1*
X1120803Y6243020D1*
X1129737Y6270523D1*
X1142867Y6296290D1*
X1159863Y6319687D1*
X1180313Y6340137D1*
X1203710Y6357133D1*
X1229477Y6370263D1*
X1256980Y6379197D1*
X1285540Y6383723D1*
X1314460D1*
X1343020Y6379197D1*
X1370523Y6370263D1*
X1396290Y6357133D1*
X1419687Y6340137D1*
X1440137Y6319687D1*
X1457133Y6296290D1*
X1470263Y6270523D1*
X1479197Y6243020D1*
X1483723Y6214460D1*
Y6185540D1*
X1479197Y6156980D1*
X1470263Y6129477D1*
X1457133Y6103710D1*
X1440940Y6081333D1*
X1466367Y6076437D1*
X1487850Y6070377D1*
X1508383Y6062800D1*
X1729023Y6283103D1*
X1742897Y6293187D1*
X1758177Y6300970D1*
X1774487Y6306270D1*
X1791427Y6308953D1*
X1830633Y6309290D1*
X1830710Y6369290D1*
X2169290D1*
Y6245143D1*
X2463103Y5950977D1*
X2473187Y5937103D1*
X2480970Y5921823D1*
X2486270Y5905513D1*
X2488953Y5888573D1*
X2489290Y5775200D1*
X2702747Y5561813D1*
X2706293Y5584500D1*
X2713460Y5606557D1*
X2723987Y5627220D1*
X2737620Y5645983D1*
X2747327Y5656197D1*
X2702210Y5656210D1*
Y5951790D1*
X2740783D1*
X2741047Y6208573D1*
X2743730Y6225513D1*
X2749030Y6241823D1*
X2756813Y6257103D1*
X2766897Y6270977D1*
X2779023Y6283103D1*
X2792897Y6293187D1*
X2808177Y6300970D1*
X2824487Y6306270D1*
X2841427Y6308953D1*
X2900477Y6309290D1*
X2913130Y6319563D1*
X2932903Y6331683D1*
X2954330Y6340557D1*
X2976880Y6345970D1*
X3000000Y6347790D1*
X3023120Y6345970D1*
X3045670Y6340557D1*
X3067097Y6331683D1*
X3086870Y6319563D1*
X3104503Y6304503D1*
X3119563Y6286870D1*
X3131683Y6267097D1*
X3140557Y6245670D1*
X3145970Y6223120D1*
X3147790Y6200000D1*
X3145970Y6176880D1*
X3140557Y6154330D1*
X3131683Y6132903D1*
X3119563Y6113130D1*
X3104503Y6095497D1*
X3086870Y6080437D1*
X3067097Y6068317D1*
X3045670Y6059443D1*
X3023120Y6054030D1*
X3000000Y6052210D1*
X2976880Y6054030D1*
X2959260Y6058053D1*
X2959290Y5951830D1*
X2997790Y5951790D1*
Y5684270D1*
X3296293Y5683877D1*
X3312947Y5681473D1*
X3319847Y5684760D1*
X3687787Y6052117D1*
X3696853Y6059170D1*
X3697900Y6066833D1*
X3681313Y6076180D1*
X3666067Y6087577D1*
X3652413Y6100843D1*
X3640577Y6115750D1*
X3630753Y6132057D1*
X3623107Y6149493D1*
X3617767Y6167767D1*
X3614820Y6186573D1*
X3614317Y6205603D1*
X3616260Y6224540D1*
X3620627Y6243070D1*
X3627333Y6260887D1*
X3636277Y6277690D1*
X3647307Y6293207D1*
X3660240Y6307177D1*
X3674860Y6319367D1*
X3690927Y6329580D1*
X3708173Y6337640D1*
X3726313Y6343417D1*
X3745043Y6346813D1*
X3764057Y6347777D1*
X3783033Y6346287D1*
X3801663Y6342367D1*
X3819637Y6336090D1*
X3836650Y6327550D1*
X3852427Y6316897D1*
X3866703Y6304303D1*
X3879240Y6289980D1*
X3889833Y6274163D1*
X3898307Y6257117D1*
X3904520Y6239120D1*
X3908363Y6220477D1*
X3909790Y6200000D1*
X3908563Y6181003D1*
X3904907Y6162320D1*
X3898877Y6144263D1*
X3890577Y6127130D1*
X3880143Y6111210D1*
X3867750Y6096760D1*
X3853890Y6084260D1*
X4043263Y6084290D1*
X4058997Y6110447D1*
X4076760Y6131240D1*
X4097553Y6149003D1*
X4120873Y6163293D1*
X4146140Y6173760D1*
X4172737Y6180143D1*
X4200000Y6182290D1*
X4227263Y6180143D1*
X4253860Y6173760D1*
X4275777Y6164837D1*
X4275710Y6234497D1*
X4097887Y6412787D1*
X4085500Y6429833D1*
X4075933Y6448610D1*
X4069420Y6468650D1*
X4066123Y6489463D1*
X4065710Y6595250D1*
Y6844413D1*
X4045670Y6864413D1*
X4051493Y6849223D1*
X4057330Y6824920D1*
X4059290Y6800000D1*
X4057330Y6775080D1*
X4051493Y6750777D1*
X4041930Y6727683D1*
X4028867Y6706373D1*
X4012637Y6687363D1*
X3993627Y6671133D1*
X3972317Y6658070D1*
X3949223Y6648507D1*
X3924920Y6642670D1*
X3900000Y6640710D1*
X3875080Y6642670D1*
X3850777Y6648507D1*
X3827683Y6658070D1*
X3806373Y6671133D1*
X3787363Y6687363D1*
X3771133Y6706373D1*
X3758070Y6727683D1*
X3748507Y6750777D1*
X3742670Y6775080D1*
X3740710Y6800000D1*
X3742670Y6824920D1*
X3748507Y6849223D1*
X3758070Y6872317D1*
X3771133Y6893627D1*
X3787363Y6912637D1*
X3803953Y6926963D1*
X3787363Y6941363D1*
X3771133Y6960373D1*
X3758070Y6981683D1*
X3748507Y7004777D1*
X3742670Y7029080D1*
X3740710Y7054000D1*
X3742670Y7078920D1*
X3748507Y7103223D1*
X3758070Y7126317D1*
X3771133Y7147627D1*
X3787363Y7166637D1*
X3795080Y7173767D1*
X3563523Y7173710D1*
X3487213Y7097887D1*
X3470167Y7085500D1*
X3451390Y7075933D1*
X3431350Y7069420D1*
X3410537Y7066123D1*
X3304750Y7065710D1*
X2738583D1*
X2723713Y7038397D1*
X2710220Y7018203D1*
X2695187Y6999133D1*
X2678700Y6981300D1*
X2660867Y6964813D1*
X2641797Y6949780D1*
X2621603Y6936287D1*
X2600413Y6924420D1*
X2578360Y6914253D1*
X2555577Y6905847D1*
X2532203Y6899257D1*
X2508383Y6894517D1*
X2484267Y6891663D1*
X2460000Y6890710D1*
X2435733Y6891663D1*
X2411617Y6894517D1*
X2392357Y6898350D1*
X2405220Y6881797D1*
X2418713Y6861603D1*
X2430580Y6840413D1*
X2440747Y6818360D1*
X2449153Y6795577D1*
X2455743Y6772203D1*
X2460483Y6748383D1*
X2463337Y6724267D1*
X2464290Y6700000D1*
X2463337Y6675733D1*
X2460483Y6651617D1*
X2455743Y6627797D1*
X2449153Y6604423D1*
X2440747Y6581640D1*
X2430580Y6559587D1*
X2418713Y6538397D1*
X2405220Y6518203D1*
X2390187Y6499133D1*
X2373700Y6481300D1*
X2355867Y6464813D1*
X2336797Y6449780D1*
X2316603Y6436287D1*
X2295413Y6424420D1*
X2273360Y6414253D1*
X2250577Y6405847D1*
X2227203Y6399257D1*
X2203383Y6394517D1*
X2179267Y6391663D1*
X2155000Y6390710D1*
X2130733Y6391663D1*
X2106617Y6394517D1*
X2082797Y6399257D1*
X2059423Y6405847D1*
X2036640Y6414253D1*
X2014587Y6424420D1*
X1993397Y6436287D1*
X1973203Y6449780D1*
X1954133Y6464813D1*
X1936300Y6481300D1*
X1919813Y6499133D1*
X1904780Y6518203D1*
X1891287Y6538397D1*
X1879420Y6559587D1*
X1869253Y6581640D1*
X1860847Y6604423D1*
X1854257Y6627797D1*
X1849517Y6651617D1*
X1846663Y6675733D1*
X1845710Y6700000D1*
X1846663Y6724267D1*
X1849517Y6748383D1*
X1854257Y6772203D1*
X1860847Y6795577D1*
X1869253Y6818360D1*
X1879420Y6840413D1*
X1891287Y6861603D1*
X1904780Y6881797D1*
X1919813Y6900867D1*
X1945147Y6926880D1*
X1914723Y6912773D1*
X1884687Y6902530D1*
X1853757Y6895417D1*
X1822263Y6891513D1*
X1790533Y6890853D1*
X1758903Y6893453D1*
X1727707Y6899277D1*
X1697270Y6908270D1*
X1667917Y6920333D1*
X1639953Y6935340D1*
X1613673Y6953133D1*
X1589357Y6973527D1*
X1567260Y6996303D1*
X1547610Y7021227D1*
X1531700Y7046163D1*
X1509130Y7030077D1*
X1481263Y7015880D1*
X1451523Y7006217D1*
X1420637Y7001323D1*
X1389363D1*
X1358477Y7006217D1*
X1328737Y7015880D1*
X1300870Y7030077D1*
X1275570Y7048460D1*
X1253460Y7070570D1*
X1235077Y7095870D1*
X1220880Y7123737D1*
X1211217Y7153477D1*
X1206323Y7184363D1*
Y7215637D1*
X1211217Y7246523D1*
X1220880Y7276263D1*
X1235077Y7304130D1*
X1253460Y7329430D1*
X1275570Y7351540D1*
X1300870Y7369923D1*
X1328737Y7384120D1*
X1358477Y7393783D1*
X1389363Y7398677D1*
X1420637D1*
X1451523Y7393783D1*
X1481263Y7384120D1*
X1509130Y7369923D1*
X1531597Y7353773D1*
X1551200Y7383737D1*
X1571337Y7408263D1*
X1593883Y7430600D1*
X1618600Y7450507D1*
X1645223Y7467777D1*
X1673480Y7482230D1*
X1703067Y7493707D1*
X1733673Y7502093D1*
X1764980Y7507300D1*
X1796657Y7509273D1*
X1828367Y7507987D1*
X1859777Y7503460D1*
X1890560Y7495737D1*
X1920387Y7484900D1*
X1948947Y7471063D1*
X1975940Y7454373D1*
X2001080Y7435003D1*
X2024103Y7413160D1*
X2044767Y7389073D1*
X2062853Y7362997D1*
X2078173Y7335203D1*
X2090563Y7305983D1*
X2099897Y7275650D1*
X2106070Y7244520D1*
X2109020Y7212923D1*
X2108703Y7180963D1*
X2105127Y7149427D1*
X2098340Y7118427D1*
X2088410Y7088283D1*
X2075443Y7059317D1*
X2059577Y7031833D1*
X2040977Y7006117D1*
X2019840Y6982443D1*
X2010670Y6973553D1*
X2036640Y6985747D1*
X2059423Y6994153D1*
X2082797Y7000743D1*
X2106617Y7005483D1*
X2130733Y7008337D1*
X2155000Y7009290D1*
X2179267Y7008337D1*
X2203383Y7005483D1*
X2222643Y7001650D1*
X2209780Y7018203D1*
X2196287Y7038397D1*
X2184420Y7059587D1*
X2174253Y7081640D1*
X2165847Y7104423D1*
X2159257Y7127797D1*
X2154517Y7151617D1*
X2151663Y7175733D1*
X2150710Y7200000D1*
X2151663Y7224267D1*
X2154517Y7248383D1*
X2159257Y7272203D1*
X2165847Y7295577D1*
X2174253Y7318360D1*
X2184420Y7340413D1*
X2196287Y7361603D1*
X2209780Y7381797D1*
X2224813Y7400867D1*
X2241300Y7418700D1*
X2259133Y7435187D1*
X2278203Y7450220D1*
X2298397Y7463713D1*
X2319587Y7475580D1*
X2341640Y7485747D1*
X2364423Y7494153D1*
X2387797Y7500743D1*
X2411617Y7505483D1*
X2435733Y7508337D1*
X2460000Y7509290D1*
X2484267Y7508337D1*
X2508383Y7505483D1*
X2532203Y7500743D1*
X2555577Y7494153D1*
X2578360Y7485747D1*
X2600413Y7475580D1*
X2621603Y7463713D1*
X2641797Y7450220D1*
X2660867Y7435187D1*
X2678700Y7418700D1*
X2695187Y7400867D1*
X2710220Y7381797D1*
X2723713Y7361603D1*
X2738400Y7334297D1*
X3344410Y7334290D1*
X3420787Y7410113D1*
X3437833Y7422500D1*
X3456610Y7432067D1*
X3476650Y7438580D1*
X3497463Y7441877D1*
X3603250Y7442290D1*
X3814213D1*
X3839043Y7455163D1*
X3862813Y7462890D1*
X3887503Y7466800D1*
X3912497D1*
X3937187Y7462890D1*
X3960957Y7455163D1*
X3983230Y7443817D1*
X4003450Y7429127D1*
X4021127Y7411450D1*
X4035817Y7391230D1*
X4047163Y7368957D1*
X4054890Y7345187D1*
X4058800Y7320497D1*
Y7295503D1*
X4054890Y7270813D1*
X4047163Y7247043D1*
X4035817Y7224770D1*
X4021127Y7204550D1*
X4004920Y7188233D1*
X4056537Y7187877D1*
X4077350Y7184580D1*
X4097390Y7178067D1*
X4116167Y7168500D1*
X4133213Y7156113D1*
X4208310Y7081607D1*
X4302113Y6987213D1*
X4314500Y6970167D1*
X4324067Y6951390D1*
X4330580Y6931350D1*
X4332747Y6920067D1*
X4335220Y6918763D1*
X4354697Y6928687D1*
X4375483Y6935440D1*
X4397070Y6938860D1*
X4418930D1*
X4440517Y6935440D1*
X4461303Y6928687D1*
X4480780Y6918763D1*
X4498460Y6905917D1*
X4513917Y6890460D1*
X4526763Y6872780D1*
X4536687Y6853303D1*
X4543440Y6832517D1*
X4546860Y6810930D1*
Y6789070D1*
X4543440Y6767483D1*
X4536687Y6746697D1*
X4526763Y6727220D1*
X4513917Y6709540D1*
X4498460Y6694083D1*
X4480780Y6681237D1*
X4461303Y6671313D1*
X4440517Y6664560D1*
X4418930Y6661140D1*
X4397070D1*
X4375483Y6664560D1*
X4354697Y6671313D1*
X4334263Y6681877D1*
X4334290Y6555587D1*
X4512113Y6377213D1*
X4524500Y6360167D1*
X4534067Y6341390D1*
X4540580Y6321350D1*
X4543913Y6299590D1*
X4569687Y6330313D1*
X4591677Y6349093D1*
X4616333Y6364203D1*
X4643050Y6375270D1*
X4671170Y6382020D1*
X4700000Y6384290D1*
X4728830Y6382020D1*
X4756950Y6375270D1*
X4783667Y6364203D1*
X4808323Y6349093D1*
X4818250Y6341750D1*
Y7518250D1*
X1081750D1*
Y1081750D1*
X1158770D1*
X1142867Y1103710D1*
X1129737Y1129477D1*
X1120803Y1156980D1*
X1116277Y1185540D1*
Y1214460D1*
X1120803Y1243020D1*
X1129737Y1270523D1*
X1142867Y1296290D1*
X1159863Y1319687D1*
X1180313Y1340137D1*
X1203710Y1357133D1*
X1229477Y1370263D1*
X1256980Y1379197D1*
X1285540Y1383723D1*
X1314460D1*
X1343020Y1379197D1*
X1370523Y1370263D1*
X1396290Y1357133D1*
X1419687Y1340137D1*
X1440137Y1319687D1*
X1457133Y1296290D1*
X1470263Y1270523D1*
X1479197Y1243020D1*
X1483723Y1214460D1*
Y1185540D1*
X1479197Y1156980D1*
X1470263Y1129477D1*
X1457133Y1103710D1*
X1441220Y1081690D1*
X3368250Y1081750D1*
X3368640Y2504967D1*
X3371710Y2514413D1*
X3377550Y2522450D1*
X3385587Y2528290D1*
X3395033Y2531360D1*
X3431750Y2531750D1*
X4818250D1*
Y6058603D1*
X4796290Y6042867D1*
X4770523Y6029737D1*
X4743020Y6020803D1*
X4714460Y6016277D1*
X4685540D1*
X4656980Y6020803D1*
X4629477Y6029737D1*
X4603710Y6042867D1*
X4580313Y6059863D1*
X4559863Y6080313D1*
X4544280Y6101593D1*
X4543877Y5699463D1*
X4540580Y5678650D1*
X4534067Y5658610D1*
X4524500Y5639833D1*
X4512117Y5622787D1*
X4437607Y5547690D1*
X4374377Y5484460D1*
X3938577Y4734327D2*
X3909307D1*
X3908953Y4491427D1*
X3906270Y4474487D1*
X3900970Y4458177D1*
X3893187Y4442897D1*
X3883107Y4429020D1*
X3765027Y4310467D1*
X3686980Y4232893D1*
X3673103Y4222813D1*
X3657823Y4215030D1*
X3641513Y4209730D1*
X3624573Y4207047D1*
X3457250Y4206710D1*
X2028730Y4206053D1*
X2011890Y4189070D1*
X2030103Y4170313D1*
X2044833Y4149650D1*
X2056307Y4127017D1*
X2064270Y4102920D1*
X2068540Y4077907D1*
X2069170Y4055650D1*
X2066320Y4030437D1*
X2059733Y4005930D1*
X2049560Y3982683D1*
X2036023Y3961220D1*
X2019430Y3942020D1*
X2011900Y3935003D1*
X2028730Y3917947D1*
X2035577Y3909260D1*
X3454697Y3909290D1*
X3938470Y4393030D1*
X3938467Y4734337D1*
X2046600Y3469290D2*
X2069290D1*
Y3409137D1*
X3254707Y3409290D1*
X3546587Y3701147D1*
X3525513Y3693730D1*
X3508573Y3691047D1*
X3341250Y3690710D1*
X2022013D1*
X2011890Y3681070D1*
X2030103Y3662313D1*
X2044833Y3641650D1*
X2056307Y3619017D1*
X2064270Y3594920D1*
X2068540Y3569907D1*
X2069170Y3547650D1*
X2066320Y3522437D1*
X2059733Y3497930D1*
X2049560Y3474683D1*
X2046563Y3469283D1*
X4546860Y7297070D2*
X4543440Y7275483D1*
X4536687Y7254697D1*
X4526763Y7235220D1*
X4513917Y7217540D1*
X4498460Y7202083D1*
X4480780Y7189237D1*
X4461303Y7179313D1*
X4440517Y7172560D1*
X4418930Y7169140D1*
X4397070D1*
X4375483Y7172560D1*
X4354697Y7179313D1*
X4335220Y7189237D1*
X4317540Y7202083D1*
X4302083Y7217540D1*
X4289237Y7235220D1*
X4279313Y7254697D1*
X4272560Y7275483D1*
X4269140Y7297070D1*
Y7318930D1*
X4272560Y7340517D1*
X4279313Y7361303D1*
X4289237Y7380780D1*
X4302083Y7398460D1*
X4317540Y7413917D1*
X4335220Y7426763D1*
X4354697Y7436687D1*
X4375483Y7443440D1*
X4397070Y7446860D1*
X4418930D1*
X4440517Y7443440D1*
X4461303Y7436687D1*
X4480780Y7426763D1*
X4498460Y7413917D1*
X4513917Y7398460D1*
X4526763Y7380780D1*
X4536687Y7361303D1*
X4543440Y7340517D1*
X4546860Y7318930D1*
Y7297070D1*
X4025833Y5754000D2*
D17*
X4200000D1*
X1800000Y7200000D2*
X2109167D1*
X3648067Y5500000D2*
X3812233D1*
X2105590Y4968617D2*
X2269757D1*
X1730833Y3554000D2*
X2069167D1*
X1730833Y4062000D2*
X2069167D1*
X1730833Y4570000D2*
X2069167D1*
X3614333Y6200000D2*
X3909667D1*
X1115833Y4200000D2*
X1684167D1*
X3338100Y2505083D2*
D16*
X4811883D1*
X3338100Y2441917D2*
X4811883D1*
X3338100Y2378750D2*
X3613072D1*
X4482402D2*
X4811883D1*
X3338100Y2315583D2*
X3613072D1*
X4482402D2*
X4811883D1*
X3338100Y2252417D2*
X3613072D1*
X4482402D2*
X4811883D1*
X3338100Y2189250D2*
X3613072D1*
X4482402D2*
X4811883D1*
X3338100Y2126083D2*
X3613072D1*
X4482402D2*
X4811883D1*
X3338100Y2062917D2*
X3613072D1*
X4482402D2*
X4811883D1*
X3338100Y1999750D2*
X3613072D1*
X4482402D2*
X4811883D1*
X3338100Y1936583D2*
X3613072D1*
X4482402D2*
X4811883D1*
X3338100Y1873417D2*
X3805309D1*
X4294755D2*
X4811883D1*
X3338100Y1810250D2*
X3805309D1*
X4294755D2*
X4811883D1*
X3338100Y1747083D2*
X3805309D1*
X4294755D2*
X4811883D1*
X3338100Y1683917D2*
X3624358D1*
X4475581D2*
X4811883D1*
X4133817Y2412907D2*
X4476047D1*
Y1924327D1*
X4288399D1*
X4288417Y1744388D1*
X4469290Y1744290D1*
Y1681658D1*
X4818250Y1681750D1*
Y2568250D1*
X3331750D1*
Y1681750D1*
X3630771D1*
X3630710Y1744290D1*
X3811660D1*
X3811583Y1924216D1*
X3619467Y1924327D1*
Y2412907D1*
X4222047Y2412783D1*
X4301757Y2168617D2*
D17*
X4475923D1*
X3619591D2*
X3793757D1*
X3338100Y1655083D2*
D16*
X3700510D1*
X4399430D2*
X4811883D1*
X3338100Y1591917D2*
X3700260D1*
X4399680D2*
X4811883D1*
X3338100Y1528750D2*
X3700260D1*
X4399680D2*
X4811883D1*
X3338100Y1465583D2*
X3700260D1*
X4399680D2*
X4811883D1*
X3338100Y1402417D2*
X3700260D1*
X4399680D2*
X4811883D1*
X3338100Y1339250D2*
X3700260D1*
X4399680D2*
X4576363D1*
X3338100Y1276083D2*
X3700260D1*
X4399680D2*
X4528240D1*
X3338100Y1212917D2*
X3700260D1*
X4399680D2*
X4511993D1*
X3338100Y1149750D2*
X4518690D1*
X3338100Y1086583D2*
X4551187D1*
X4561580Y1081707D2*
X4544750Y1104863D1*
X4531777Y1130320D1*
X4522947Y1157493D1*
X4518477Y1185713D1*
Y1214287D1*
X4522947Y1242507D1*
X4531777Y1269680D1*
X4544750Y1295137D1*
X4561543Y1318253D1*
X4581747Y1338457D1*
X4604863Y1355250D1*
X4630320Y1368223D1*
X4657493Y1377053D1*
X4685713Y1381523D1*
X4714287D1*
X4742507Y1377053D1*
X4769680Y1368223D1*
X4795137Y1355250D1*
X4818293Y1338420D1*
X4818250Y1718250D1*
X4268453D1*
X4268417Y1693290D1*
X4356793Y1692883D1*
X4366613Y1690113D1*
X4375520Y1685123D1*
X4383013Y1678197D1*
X4388683Y1669710D1*
X4392217Y1660137D1*
X4393417Y1650000D1*
X4392883Y1193207D1*
X4390113Y1183387D1*
X4385123Y1174480D1*
X4378197Y1166987D1*
X4369710Y1161317D1*
X4360137Y1157783D1*
X4350000Y1156583D1*
X3746593Y1156717D1*
X3736583Y1158707D1*
X3727313Y1162980D1*
X3719300Y1169300D1*
X3712980Y1177313D1*
X3708707Y1186583D1*
X3706717Y1196593D1*
Y1653407D1*
X3708707Y1663417D1*
X3712980Y1672687D1*
X3719300Y1680700D1*
X3727313Y1687020D1*
X3736583Y1691293D1*
X3746593Y1693283D1*
X3831730Y1693417D1*
X3831583Y1718337D1*
X3331750Y1718250D1*
Y1081750D1*
X4561443D1*
D18*
X4200000Y5500000D3*
D19*
Y6008000D3*
Y5754000D3*
D20*
X1800000Y7200000D3*
X2155000Y6700000D3*
X2460000Y7200000D3*
D21*
X3394067Y5500000D3*
D22*
X3648067D3*
D23*
X4301757Y2168617D3*
X4047757D3*
X3793757D3*
X4301757Y4968617D3*
X4047757D3*
X3793757D3*
X3539757D3*
X3285757D3*
X3031757D3*
X2777757D3*
X2523757D3*
X2269757D3*
D24*
X2850000Y5550000D3*
D25*
Y5804000D3*
D26*
X4300000Y1250000D3*
D27*
Y1500000D3*
X3800000D3*
D26*
Y1250000D3*
D28*
X4050000Y1500000D3*
D29*
X1900000Y3300000D3*
D30*
Y3554000D3*
Y3808000D3*
Y4062000D3*
Y4316000D3*
Y4570000D3*
D24*
X3000000Y6200000D3*
D31*
X3762000D3*
D29*
X2000000D3*
D30*
Y5946000D3*
Y5692000D3*
D14*
X3900000Y7308000D3*
Y7054000D3*
Y6800000D3*
D21*
X2040000Y5200000D3*
D22*
X1786000D3*
D32*
X1400000Y5800000D3*
Y5200000D3*
Y4700000D3*
Y4200000D3*
M02*
