G04 DipTrace 3.0.0.2*
G04 Top.gbr*
%MOMM*%
G04 #@! TF.FileFunction,Copper,L1,Top*
G04 #@! TF.Part,Single*
G04 #@! TA.AperFunction,Conductor*
%ADD13C,0.5*%
G04 #@! TA.AperFunction,ComponentPad*
%ADD14C,1.5*%
G04 #@! TA.AperFunction,Conductor*
%ADD15C,1.0*%
G04 #@! TA.AperFunction,CopperBalancing*
%ADD16C,0.635*%
%ADD17C,0.33*%
G04 #@! TA.AperFunction,ComponentPad*
%ADD18R,1.6X1.6*%
%ADD19C,1.6*%
%ADD20C,1.27*%
%ADD21R,1.27X1.27*%
%ADD22R,1.7X1.7*%
%ADD23C,1.7*%
%ADD24C,4.0*%
%ADD25C,1.27*%
%ADD26R,1.8X1.8*%
%ADD27C,1.8*%
%ADD28C,4.5*%
%ADD29R,1.6X3.0*%
G04 #@! TA.AperFunction,ComponentPad*
%ADD30C,3.0*%
%ADD31R,1.5X3.0*%
%ADD32C,2.0*%
%FSLAX35Y35*%
G04*
G71*
G90*
G75*
G01*
G04 Top*
%LPD*%
X3639757Y4968617D2*
D13*
Y5239757D1*
X3648067Y5248067D1*
Y5500000D1*
X2369757Y4968617D2*
Y4600000D1*
X1930000D1*
X1900000Y4570000D1*
X3639757Y4968617D2*
Y4639757D1*
X3600000Y4600000D1*
X2369757D1*
X1900000Y4062000D2*
X1738000D1*
X1700000Y4100000D1*
Y4500000D1*
X1800000Y4600000D1*
X1870000D1*
X1900000Y4570000D1*
Y3554000D2*
X1746000D1*
X1700000Y3600000D1*
Y3854673D1*
Y4100000D1*
X1800000Y7200000D2*
Y6700000D1*
X1600000Y6500000D1*
X1200000D1*
X1125000Y6425000D1*
Y4475000D1*
X1400000Y4200000D1*
Y4154673D1*
X1700000Y3854673D1*
X4400000Y1700000D2*
D14*
Y2168617D1*
X3893757D1*
X3900000Y1700000D2*
Y2168617D1*
X4401757D1*
X3893757D2*
D13*
X2431383D1*
X1700000Y2900000D1*
Y3600000D1*
X4300000Y5754000D2*
X3879000D1*
X3648067Y5523067D1*
Y5500000D1*
X2460000Y7200000D2*
D15*
X3500000D1*
X3625000Y7325000D1*
X3900000D1*
Y7308000D1*
X3000000Y5436467D2*
X3385757D1*
Y5500000D1*
X3394067D1*
X3385757Y4968617D2*
Y5436467D1*
X3394067Y5500000D2*
Y5569067D1*
X3775000Y5950000D1*
X4242000D1*
X4300000Y6008000D1*
X4150000Y1700000D2*
D14*
Y2168617D1*
X4147757D1*
X1900000Y3300000D2*
D13*
X3300000D1*
X4400000Y4400000D1*
Y4966860D1*
X4401757Y4968617D1*
X4147757D2*
Y4447757D1*
X3500000Y3800000D1*
X1908000D1*
X1900000Y3808000D1*
Y4316000D2*
X3616000D1*
X3900000Y4600000D1*
Y4962373D1*
X3893757Y4968617D1*
X3000000Y5690467D2*
Y6200000D1*
X1846000Y6154000D2*
X2646000D1*
X2800000Y6000000D1*
Y5400000D1*
X2900000Y5300000D1*
X3100000D1*
Y5000373D1*
X3131757Y4968617D1*
X1846000Y6154000D2*
X1654000D1*
X1400000Y5900000D1*
X2877757Y4968617D2*
Y5122243D1*
X2600000Y5400000D1*
Y5800000D1*
X2500000Y5900000D1*
X1846000D1*
X1800000D1*
X1400000Y5500000D1*
Y5200000D1*
X2105933Y5100000D2*
Y5294067D1*
X2100000Y5300000D1*
X2500000D1*
X2600000Y5200000D1*
Y4992373D1*
X2623757Y4968617D1*
X3900000Y7054000D2*
D15*
X4046000D1*
X4200000Y6900000D1*
Y6500000D1*
X4500000Y6200000D1*
Y5700000D1*
X4300000Y5500000D1*
X1846000Y5646000D2*
D13*
Y5105933D1*
X1851933Y5100000D1*
X1800000D1*
X1400000Y4700000D1*
X1088100Y7455083D2*
D16*
X1618685D1*
X1981255D2*
X2278737D1*
X2641308D2*
X3585448D1*
X3967490D2*
X4811916D1*
X1088100Y7391917D2*
X1344965D1*
X1465069D2*
X1551092D1*
X2048848D2*
X2211145D1*
X2708900D2*
X3495655D1*
X4041780D2*
X4290522D1*
X4525472D2*
X4811916D1*
X1088100Y7328750D2*
X1246490D1*
X2087543D2*
X2172449D1*
X4064228D2*
X4263857D1*
X4552137D2*
X4811916D1*
X1088100Y7265583D2*
X1210400D1*
X2108627D2*
X2151329D1*
X4059888D2*
X4268942D1*
X4547052D2*
X4811916D1*
X1088100Y7202417D2*
X1199361D1*
X4025657D2*
X4310861D1*
X4505256D2*
X4811916D1*
X1088100Y7139250D2*
X1208787D1*
X2109619D2*
X2150483D1*
X3635479D2*
X3759081D1*
X4156998D2*
X4811916D1*
X1088100Y7076083D2*
X1242522D1*
X2089775D2*
X2170217D1*
X3557965D2*
X3735889D1*
X4220126D2*
X4811916D1*
X1088100Y7012917D2*
X1329958D1*
X1480076D2*
X1547371D1*
X2052692D2*
X2207300D1*
X2712621D2*
X3739733D1*
X4283254D2*
X4811916D1*
X1088100Y6949750D2*
X1611863D1*
X2648129D2*
X3773220D1*
X4331003D2*
X4811916D1*
X1088100Y6886583D2*
X1901954D1*
X2408019D2*
X3759949D1*
X4523487D2*
X4811916D1*
X1088100Y6823417D2*
X1864995D1*
X2444978D2*
X3736137D1*
X4551641D2*
X4811916D1*
X1088100Y6760250D2*
X1845275D1*
X2464698D2*
X3739361D1*
X4547796D2*
X4811916D1*
X1088100Y6697083D2*
X1839322D1*
X2470651D2*
X3772104D1*
X4508232D2*
X4811916D1*
X1088100Y6633917D2*
X1846516D1*
X2463458D2*
X4059342D1*
X4340553D2*
X4811916D1*
X1088100Y6570750D2*
X1867600D1*
X2442374D2*
X4059342D1*
X4340553D2*
X4811916D1*
X1088100Y6507583D2*
X1906543D1*
X2403555D2*
X4059342D1*
X4388674D2*
X4811916D1*
X1088100Y6444417D2*
X1974508D1*
X2335466D2*
X4071496D1*
X4451802D2*
X4579124D1*
X1088100Y6381250D2*
X1160294D1*
X1239719D2*
X4122594D1*
X1347867Y6318083D2*
X1670402D1*
X2021686D2*
X2904808D1*
X3095233D2*
X3666808D1*
X3857233D2*
X4185722D1*
X1382222Y6254917D2*
X1605786D1*
X2694266D2*
X2856439D1*
X3143602D2*
X3618439D1*
X3905602D2*
X4248850D1*
X1390407Y6191750D2*
X1530876D1*
X2769052D2*
X2846145D1*
X3153896D2*
X3608145D1*
X3915896D2*
X4311978D1*
X2832304Y6128583D2*
X2864252D1*
X3135789D2*
X3626252D1*
X3897789D2*
X4167862D1*
X4774015D2*
X4811842D1*
X3115573Y6065417D2*
X3694589D1*
X4640565D2*
X4811916D1*
X1088100Y6002250D2*
X1128420D1*
X3115573D2*
X3631089D1*
X4640565D2*
X4811916D1*
X3115573Y5939083D2*
X3567837D1*
X4640565D2*
X4811916D1*
X3115573Y5875917D2*
X3504709D1*
X4640565D2*
X4811916D1*
X1088100Y5812750D2*
X1123087D1*
X3154144D2*
X3441581D1*
X3833917D2*
X4129539D1*
X4640565D2*
X4811916D1*
X1088100Y5749583D2*
X1152357D1*
X3154144D2*
X3378329D1*
X3770789D2*
X4119369D1*
X4640565D2*
X4811916D1*
X1088100Y5686417D2*
X1206059D1*
X3154144D2*
X3315201D1*
X3707661D2*
X4133012D1*
X4639945D2*
X4811916D1*
X1088100Y5623250D2*
X1328594D1*
X3154144D2*
X3223424D1*
X3763100D2*
X4119369D1*
X4616505D2*
X4811916D1*
X1088100Y5560083D2*
X1302425D1*
X3807376D2*
X4119369D1*
X4556353D2*
X4811916D1*
X1088100Y5496917D2*
X1284442D1*
X3818662D2*
X4119369D1*
X4493101D2*
X4811916D1*
X1088100Y5433750D2*
X1231856D1*
X3804771D2*
X4119369D1*
X4480699D2*
X4811916D1*
X1088100Y5370583D2*
X1166247D1*
X3755658D2*
X4119369D1*
X4480699D2*
X4811916D1*
X1088100Y5307417D2*
X1130404D1*
X3526339D2*
X4811916D1*
X3526339Y5244250D2*
X4811916D1*
X4572352Y5181083D2*
X4811916D1*
X1088100Y5117917D2*
X1121475D1*
X4572352D2*
X4811916D1*
X1088100Y5054750D2*
X1149256D1*
X4572352D2*
X4811916D1*
X1088100Y4991583D2*
X1200354D1*
X4572352D2*
X4811916D1*
X1088100Y4928417D2*
X1224414D1*
X1789267D2*
X2199114D1*
X4572352D2*
X4811916D1*
X1088100Y4865250D2*
X1162278D1*
X1726139D2*
X2199114D1*
X4572352D2*
X4811916D1*
X1088100Y4802083D2*
X1128296D1*
X1671692D2*
X2199114D1*
X4572352D2*
X4811916D1*
X1687939Y4738917D2*
X1882358D1*
X1917552D2*
X2199114D1*
X4572352D2*
X4811916D1*
X1689552Y4675750D2*
X1761436D1*
X2038554D2*
X3784382D1*
X4515550D2*
X4811916D1*
X1088100Y4612583D2*
X1123087D1*
X1676901D2*
X1729810D1*
X2070180D2*
X3751764D1*
X4515550D2*
X4811916D1*
X1088100Y4549417D2*
X1152481D1*
X1647508D2*
X1725593D1*
X2074396D2*
X3688512D1*
X4515550D2*
X4811916D1*
X1088100Y4486250D2*
X1206183D1*
X1593806D2*
X1746553D1*
X2053436D2*
X3625384D1*
X3947150D2*
X4025359D1*
X4515550D2*
X4811916D1*
X1088100Y4423083D2*
X1217469D1*
X1582519D2*
X1762552D1*
X3883898D2*
X3962232D1*
X4515550D2*
X4811916D1*
X1088100Y4359917D2*
X1158558D1*
X1641431D2*
X1730182D1*
X3820770D2*
X3899104D1*
X4507984D2*
X4811916D1*
X1088100Y4296750D2*
X1126312D1*
X1673677D2*
X1725469D1*
X3757642D2*
X3835852D1*
X4457631D2*
X4811916D1*
X1688683Y4233583D2*
X1745809D1*
X3694018D2*
X3772724D1*
X4394503D2*
X4811916D1*
X1689056Y4170417D2*
X1763668D1*
X2036321D2*
X3709596D1*
X4331251D2*
X4811916D1*
X1088100Y4107250D2*
X1124947D1*
X1675041D2*
X1730554D1*
X2069435D2*
X3646344D1*
X4268123D2*
X4811916D1*
X1088100Y4044083D2*
X1155953D1*
X1644035D2*
X1725345D1*
X2074644D2*
X3583216D1*
X4204995D2*
X4811916D1*
X1088100Y3980917D2*
X1212508D1*
X1587480D2*
X1745065D1*
X2054925D2*
X3520088D1*
X4141743D2*
X4811916D1*
X1088100Y3917750D2*
X1359600D1*
X1440389D2*
X1764784D1*
X2035205D2*
X3456836D1*
X4078615D2*
X4811916D1*
X1088100Y3854583D2*
X1730926D1*
X4015487D2*
X4811916D1*
X1088100Y3791417D2*
X1725221D1*
X3952235D2*
X4811916D1*
X1088100Y3728250D2*
X1744320D1*
X3889107D2*
X4811916D1*
X1088100Y3665083D2*
X1765900D1*
X2034089D2*
X3504213D1*
X3825979D2*
X4811916D1*
X1088100Y3601917D2*
X1731298D1*
X2068691D2*
X3441085D1*
X3762727D2*
X4811916D1*
X1088100Y3538750D2*
X1725097D1*
X2074892D2*
X3377833D1*
X3699600D2*
X4811916D1*
X1088100Y3475583D2*
X1743576D1*
X2056413D2*
X3314705D1*
X3636472D2*
X4811916D1*
X1088100Y3412417D2*
X1724353D1*
X2075637D2*
X3251577D1*
X3573220D2*
X4811916D1*
X1088100Y3349250D2*
X1724353D1*
X3510092D2*
X4811916D1*
X1088100Y3286083D2*
X1724353D1*
X3446964D2*
X4811916D1*
X1088100Y3222917D2*
X1724353D1*
X3383836D2*
X4811916D1*
X1088100Y3159750D2*
X1724353D1*
X2075637D2*
X4811916D1*
X1088100Y3096583D2*
X4811916D1*
X1088100Y3033417D2*
X4811916D1*
X1088100Y2970250D2*
X4811916D1*
X1088100Y2907083D2*
X4811916D1*
X1088100Y2843917D2*
X4811916D1*
X1088100Y2780750D2*
X4811916D1*
X1088100Y2717583D2*
X4811916D1*
X1088100Y2654417D2*
X4811916D1*
X1088100Y2591250D2*
X4811916D1*
X1088100Y2528083D2*
X3361958D1*
X1088100Y2464917D2*
X3361958D1*
X1088100Y2401750D2*
X3361958D1*
X1088100Y2338583D2*
X3361958D1*
X1088100Y2275417D2*
X3361958D1*
X1088100Y2212250D2*
X3361958D1*
X1088100Y2149083D2*
X3361958D1*
X1088100Y2085917D2*
X3361958D1*
X1088100Y2022750D2*
X3361958D1*
X1088100Y1959583D2*
X3361958D1*
X1088100Y1896417D2*
X3361958D1*
X1088100Y1833250D2*
X3361958D1*
X1088100Y1770083D2*
X3361958D1*
X1088100Y1706917D2*
X3361958D1*
X1088100Y1643750D2*
X3361958D1*
X1088100Y1580583D2*
X3361958D1*
X1088100Y1517417D2*
X3361958D1*
X1088100Y1454250D2*
X3361958D1*
X1088100Y1391083D2*
X3361958D1*
X1339061Y1327917D2*
X3361958D1*
X1378873Y1264750D2*
X3361958D1*
X1390655Y1201583D2*
X3361958D1*
X1379989Y1138417D2*
X3361958D1*
X3261527Y5664290D2*
X3299354D1*
X3687786Y6052115D1*
X3696854Y6059169D1*
X3697900Y6066835D1*
X3681314Y6076179D1*
X3666067Y6087578D1*
X3652412Y6100842D1*
X3640575Y6115751D1*
X3630753Y6132058D1*
X3623108Y6149493D1*
X3617768Y6167765D1*
X3614821Y6186573D1*
X3614316Y6205603D1*
X3616262Y6224540D1*
X3620625Y6243070D1*
X3627334Y6260885D1*
X3636278Y6277690D1*
X3647307Y6293207D1*
X3660240Y6307176D1*
X3674861Y6319368D1*
X3690927Y6329578D1*
X3708173Y6337639D1*
X3726312Y6343416D1*
X3745043Y6346814D1*
X3764056Y6347776D1*
X3783034Y6346285D1*
X3801664Y6342368D1*
X3819635Y6336089D1*
X3836650Y6327551D1*
X3852426Y6316897D1*
X3866703Y6304304D1*
X3879241Y6289980D1*
X3889835Y6274163D1*
X3898308Y6257115D1*
X3904518Y6239120D1*
X3908365Y6220476D1*
X3909790Y6200000D1*
X3908564Y6181003D1*
X3904906Y6162321D1*
X3898877Y6144264D1*
X3890577Y6127132D1*
X3880144Y6111208D1*
X3867750Y6096759D1*
X3853889Y6084259D1*
X4143226Y6084290D1*
X4158996Y6110445D1*
X4176758Y6131242D1*
X4197555Y6149004D1*
X4220874Y6163294D1*
X4246141Y6173760D1*
X4272735Y6180144D1*
X4300000Y6182290D1*
X4327265Y6180144D1*
X4330673Y6179466D1*
X4097885Y6412785D1*
X4085499Y6429834D1*
X4075932Y6448609D1*
X4069420Y6468651D1*
X4066124Y6489464D1*
X4065710Y6595250D1*
Y6844413D1*
X4045671Y6864414D1*
X4051494Y6849223D1*
X4057329Y6824918D1*
X4059290Y6800000D1*
X4057329Y6775082D1*
X4051494Y6750777D1*
X4041928Y6727684D1*
X4028868Y6706372D1*
X4012635Y6687365D1*
X3993628Y6671132D1*
X3972316Y6658072D1*
X3949223Y6648506D1*
X3924918Y6642671D1*
X3900000Y6640710D1*
X3875082Y6642671D1*
X3850777Y6648506D1*
X3827684Y6658072D1*
X3806372Y6671132D1*
X3787365Y6687365D1*
X3771132Y6706372D1*
X3758072Y6727684D1*
X3748506Y6750777D1*
X3742671Y6775082D1*
X3740710Y6800000D1*
X3742671Y6824918D1*
X3748506Y6849223D1*
X3758072Y6872316D1*
X3771132Y6893628D1*
X3787365Y6912635D1*
X3803954Y6926963D1*
X3787365Y6941365D1*
X3771132Y6960372D1*
X3758072Y6981684D1*
X3748506Y7004777D1*
X3742671Y7029082D1*
X3740710Y7054000D1*
X3742671Y7078918D1*
X3748506Y7103223D1*
X3758072Y7126316D1*
X3771132Y7147628D1*
X3787365Y7166635D1*
X3803954Y7180963D1*
X3792352Y7190755D1*
X3680603Y7190710D1*
X3587214Y7097885D1*
X3570166Y7085499D1*
X3551391Y7075932D1*
X3531349Y7069420D1*
X3510536Y7066124D1*
X3404750Y7065710D1*
X2738620D1*
X2723713Y7038396D1*
X2710221Y7018204D1*
X2695186Y6999132D1*
X2678701Y6981299D1*
X2660868Y6964814D1*
X2641796Y6949779D1*
X2621604Y6936287D1*
X2600415Y6924421D1*
X2578360Y6914253D1*
X2555576Y6905848D1*
X2532202Y6899256D1*
X2508384Y6894518D1*
X2484267Y6891663D1*
X2460000Y6890710D1*
X2435733Y6891663D1*
X2411616Y6894518D1*
X2392357Y6898349D1*
X2405221Y6881796D1*
X2418713Y6861604D1*
X2430579Y6840415D1*
X2440747Y6818360D1*
X2449152Y6795576D1*
X2455744Y6772202D1*
X2460482Y6748384D1*
X2463337Y6724267D1*
X2464290Y6700000D1*
X2463337Y6675733D1*
X2460482Y6651616D1*
X2455744Y6627798D1*
X2449152Y6604424D1*
X2440747Y6581640D1*
X2430579Y6559585D1*
X2418713Y6538396D1*
X2405221Y6518204D1*
X2390186Y6499132D1*
X2373701Y6481299D1*
X2355868Y6464814D1*
X2336796Y6449779D1*
X2316604Y6436287D1*
X2295415Y6424421D1*
X2273360Y6414253D1*
X2250576Y6405848D1*
X2227202Y6399256D1*
X2203384Y6394518D1*
X2179267Y6391663D1*
X2155000Y6390710D1*
X2130733Y6391663D1*
X2106616Y6394518D1*
X2082798Y6399256D1*
X2059424Y6405848D1*
X2036640Y6414253D1*
X2014585Y6424421D1*
X1993396Y6436287D1*
X1973204Y6449779D1*
X1954132Y6464814D1*
X1936299Y6481299D1*
X1919814Y6499132D1*
X1904779Y6518204D1*
X1891287Y6538396D1*
X1879421Y6559585D1*
X1869253Y6581640D1*
X1860848Y6604424D1*
X1854256Y6627798D1*
X1849518Y6651616D1*
X1846663Y6675733D1*
X1845710Y6700000D1*
X1846663Y6724267D1*
X1849518Y6748384D1*
X1854256Y6772202D1*
X1860848Y6795576D1*
X1869253Y6818360D1*
X1879421Y6840415D1*
X1891287Y6861604D1*
X1904779Y6881796D1*
X1919814Y6900868D1*
X1945146Y6926879D1*
X1914723Y6912774D1*
X1884686Y6902530D1*
X1853757Y6895418D1*
X1822262Y6891512D1*
X1790533Y6890855D1*
X1758903Y6893452D1*
X1727707Y6899278D1*
X1697271Y6908269D1*
X1667917Y6920332D1*
X1639953Y6935339D1*
X1613675Y6953133D1*
X1589358Y6973526D1*
X1567259Y6996304D1*
X1547611Y7021226D1*
X1531700Y7046162D1*
X1509129Y7030077D1*
X1481265Y7015880D1*
X1451523Y7006216D1*
X1420636Y7001324D1*
X1389364D1*
X1358477Y7006216D1*
X1328735Y7015880D1*
X1300871Y7030077D1*
X1275571Y7048459D1*
X1253459Y7070571D1*
X1235077Y7095871D1*
X1220880Y7123735D1*
X1211216Y7153477D1*
X1206324Y7184364D1*
Y7215636D1*
X1211216Y7246523D1*
X1220880Y7276265D1*
X1235077Y7304129D1*
X1253459Y7329429D1*
X1275571Y7351541D1*
X1300871Y7369923D1*
X1328735Y7384120D1*
X1358477Y7393784D1*
X1389364Y7398676D1*
X1420636D1*
X1451523Y7393784D1*
X1481265Y7384120D1*
X1509129Y7369923D1*
X1531596Y7353774D1*
X1551200Y7383736D1*
X1571338Y7408264D1*
X1593883Y7430600D1*
X1618599Y7450507D1*
X1645224Y7467778D1*
X1673479Y7482228D1*
X1703067Y7493708D1*
X1733674Y7502095D1*
X1764980Y7507301D1*
X1796655Y7509272D1*
X1828365Y7507987D1*
X1859777Y7503458D1*
X1890559Y7495735D1*
X1920387Y7484899D1*
X1948948Y7471062D1*
X1975941Y7454372D1*
X2001081Y7435003D1*
X2024105Y7413161D1*
X2044768Y7389073D1*
X2062855Y7362996D1*
X2078174Y7335202D1*
X2090564Y7305984D1*
X2099895Y7275651D1*
X2106069Y7244521D1*
X2109020Y7212923D1*
X2108704Y7180962D1*
X2105127Y7149428D1*
X2098339Y7118427D1*
X2088409Y7088284D1*
X2075443Y7059318D1*
X2059576Y7031832D1*
X2040977Y7006118D1*
X2019841Y6982444D1*
X2010670Y6973553D1*
X2036640Y6985747D1*
X2059424Y6994152D1*
X2082798Y7000744D1*
X2106616Y7005482D1*
X2130733Y7008337D1*
X2155000Y7009290D1*
X2179267Y7008337D1*
X2203384Y7005482D1*
X2222643Y7001651D1*
X2209779Y7018204D1*
X2196287Y7038396D1*
X2184421Y7059585D1*
X2174253Y7081640D1*
X2165848Y7104424D1*
X2159256Y7127798D1*
X2154518Y7151616D1*
X2151663Y7175733D1*
X2150710Y7200000D1*
X2151663Y7224267D1*
X2154518Y7248384D1*
X2159256Y7272202D1*
X2165848Y7295576D1*
X2174253Y7318360D1*
X2184421Y7340415D1*
X2196287Y7361604D1*
X2209779Y7381796D1*
X2224814Y7400868D1*
X2241299Y7418701D1*
X2259132Y7435186D1*
X2278204Y7450221D1*
X2298396Y7463713D1*
X2319585Y7475579D1*
X2341640Y7485747D1*
X2364424Y7494152D1*
X2387798Y7500744D1*
X2411616Y7505482D1*
X2435733Y7508337D1*
X2460000Y7509290D1*
X2484267Y7508337D1*
X2508384Y7505482D1*
X2532202Y7500744D1*
X2555576Y7494152D1*
X2578360Y7485747D1*
X2600415Y7475579D1*
X2621604Y7463713D1*
X2641796Y7450221D1*
X2660868Y7435186D1*
X2678701Y7418701D1*
X2695186Y7400868D1*
X2710221Y7381796D1*
X2723713Y7361604D1*
X2738399Y7334298D1*
X3444374Y7334290D1*
X3537786Y7427115D1*
X3554834Y7439501D1*
X3573609Y7449068D1*
X3593651Y7455580D1*
X3614464Y7458876D1*
X3720250Y7459290D1*
X3850777Y7459494D1*
X3875082Y7465329D1*
X3900000Y7467290D1*
X3924918Y7465329D1*
X3949223Y7459494D1*
X3972316Y7449928D1*
X3993628Y7436868D1*
X4012635Y7420635D1*
X4028868Y7401628D1*
X4041928Y7380316D1*
X4051494Y7357223D1*
X4057329Y7332918D1*
X4059290Y7308000D1*
X4057329Y7283082D1*
X4051494Y7258777D1*
X4041928Y7235684D1*
X4028868Y7214372D1*
X4012635Y7195365D1*
X4004922Y7188235D1*
X4056536Y7187876D1*
X4077349Y7184580D1*
X4097391Y7178068D1*
X4116166Y7168501D1*
X4133214Y7156115D1*
X4208309Y7081606D1*
X4302115Y6987214D1*
X4314501Y6970166D1*
X4324068Y6951391D1*
X4330580Y6931349D1*
X4332748Y6920067D1*
X4335221Y6918764D1*
X4354696Y6928687D1*
X4375483Y6935441D1*
X4397071Y6938861D1*
X4418929D1*
X4440517Y6935441D1*
X4461304Y6928687D1*
X4480779Y6918764D1*
X4498462Y6905917D1*
X4513917Y6890462D1*
X4526764Y6872779D1*
X4536687Y6853304D1*
X4543441Y6832517D1*
X4546861Y6810929D1*
Y6789071D1*
X4543441Y6767483D1*
X4536687Y6746696D1*
X4526764Y6727221D1*
X4513917Y6709538D1*
X4498462Y6694083D1*
X4480779Y6681236D1*
X4461304Y6671313D1*
X4440517Y6664559D1*
X4418929Y6661139D1*
X4397071D1*
X4375483Y6664559D1*
X4354696Y6671313D1*
X4334262Y6681877D1*
X4334290Y6555587D1*
X4526918Y6362997D1*
X4535796Y6383666D1*
X4550906Y6408323D1*
X4569687Y6430313D1*
X4591677Y6449094D1*
X4616334Y6464204D1*
X4643051Y6475270D1*
X4671171Y6482021D1*
X4700000Y6484290D1*
X4728829Y6482021D1*
X4756949Y6475270D1*
X4783666Y6464204D1*
X4808323Y6449094D1*
X4818311Y6441220D1*
X4818250Y7518250D1*
X1081750D1*
Y6341392D1*
X1103709Y6357133D1*
X1129475Y6370262D1*
X1156978Y6379198D1*
X1185541Y6383722D1*
X1214459D1*
X1243022Y6379198D1*
X1270525Y6370262D1*
X1296291Y6357133D1*
X1319687Y6340135D1*
X1340135Y6319687D1*
X1357133Y6296291D1*
X1370262Y6270525D1*
X1379198Y6243022D1*
X1383722Y6214459D1*
X1383516Y6183801D1*
X1422305Y6183414D1*
X1444473Y6180790D1*
X1466366Y6176435D1*
X1487850Y6170376D1*
X1508384Y6162801D1*
X1583022Y6237105D1*
X1596896Y6247185D1*
X1612176Y6254971D1*
X1628487Y6260271D1*
X1645425Y6262953D1*
X1676696Y6263290D1*
X1676710Y6323290D1*
X2015290D1*
Y6263138D1*
X2654575Y6262953D1*
X2671513Y6260270D1*
X2687824Y6254971D1*
X2703104Y6247185D1*
X2716978Y6237105D1*
X2835533Y6119027D1*
X2883105Y6070978D1*
X2888958Y6063431D1*
X2890710Y6071467D1*
Y6100612D1*
X2880435Y6113131D1*
X2868318Y6132905D1*
X2859443Y6154330D1*
X2854030Y6176881D1*
X2852210Y6200000D1*
X2854030Y6223119D1*
X2859443Y6245670D1*
X2868318Y6267095D1*
X2880435Y6286869D1*
X2895497Y6304503D1*
X2913131Y6319565D1*
X2932905Y6331682D1*
X2954330Y6340557D1*
X2976881Y6345970D1*
X3000000Y6347790D1*
X3023119Y6345970D1*
X3045670Y6340557D1*
X3067095Y6331682D1*
X3086869Y6319565D1*
X3104503Y6304503D1*
X3119565Y6286869D1*
X3131682Y6267095D1*
X3140557Y6245670D1*
X3145970Y6223119D1*
X3147790Y6200000D1*
X3145970Y6176881D1*
X3140557Y6154330D1*
X3131682Y6132905D1*
X3119565Y6113131D1*
X3109273Y6100656D1*
X3109290Y5838224D1*
X3147790Y5838257D1*
Y5570738D1*
X3229815Y5570757D1*
X3229777Y5664290D1*
X3261527D1*
X3558357Y5362293D2*
Y5335710D1*
X3520033D1*
X3520047Y5202931D1*
X4566047Y5202906D1*
Y4734326D1*
X4509368D1*
X4508953Y4391425D1*
X4506271Y4374487D1*
X4500971Y4358176D1*
X4493185Y4342896D1*
X4483105Y4329022D1*
X4365027Y4210467D1*
X3370978Y3216895D1*
X3357104Y3206815D1*
X3341824Y3199029D1*
X3325513Y3193729D1*
X3308575Y3191047D1*
X3141250Y3190710D1*
X2069315D1*
X2069290Y3130710D1*
X1730710D1*
Y3469290D1*
X1753406D1*
X1741916Y3493433D1*
X1734638Y3517743D1*
X1731076Y3542868D1*
X1731310Y3568243D1*
X1735334Y3593298D1*
X1743058Y3617470D1*
X1754309Y3640216D1*
X1768833Y3661025D1*
X1786304Y3679429D1*
X1788079Y3680978D1*
X1771271Y3698055D1*
X1755657Y3719546D1*
X1743596Y3743216D1*
X1735387Y3768480D1*
X1731232Y3794718D1*
Y3821282D1*
X1735387Y3847520D1*
X1743596Y3872784D1*
X1755657Y3896454D1*
X1771271Y3917945D1*
X1788110Y3934932D1*
X1770899Y3952492D1*
X1755981Y3973020D1*
X1744298Y3995547D1*
X1736114Y4019567D1*
X1731613Y4044541D1*
X1730895Y4069907D1*
X1733976Y4095095D1*
X1740789Y4119540D1*
X1751178Y4142692D1*
X1764912Y4164031D1*
X1781680Y4183077D1*
X1788079Y4188978D1*
X1771271Y4206055D1*
X1755657Y4227546D1*
X1743596Y4251216D1*
X1735387Y4276480D1*
X1731232Y4302718D1*
Y4329282D1*
X1735387Y4355520D1*
X1743596Y4380784D1*
X1755657Y4404454D1*
X1771271Y4425945D1*
X1788110Y4442932D1*
X1770899Y4460492D1*
X1755981Y4481020D1*
X1744298Y4503547D1*
X1736114Y4527567D1*
X1731613Y4552541D1*
X1730895Y4577907D1*
X1733976Y4603095D1*
X1740789Y4627540D1*
X1751178Y4650692D1*
X1764912Y4672031D1*
X1781680Y4691077D1*
X1801108Y4707402D1*
X1822757Y4720641D1*
X1846142Y4730494D1*
X1870737Y4736742D1*
X1895990Y4739243D1*
X1921333Y4737941D1*
X1946196Y4732865D1*
X1970022Y4724130D1*
X1992274Y4711932D1*
X2012453Y4696545D1*
X2030105Y4678314D1*
X2044833Y4657650D1*
X2056308Y4635016D1*
X2064270Y4610921D1*
X2068541Y4585907D1*
X2069171Y4563651D1*
X2066321Y4538436D1*
X2059735Y4513929D1*
X2049559Y4490683D1*
X2036023Y4469218D1*
X2019430Y4450018D1*
X2011900Y4443004D1*
X2029276Y4425252D1*
X3570720Y4425290D1*
X3790676Y4645236D1*
X3790710Y4734317D1*
X2713467Y4734450D1*
X2205467Y4734326D1*
Y4935715D1*
X1941643Y4935710D1*
Y4962375D1*
X1926519Y4953617D1*
X1902702Y4943751D1*
X1877634Y4937733D1*
X1851933Y4935710D1*
X1826233Y4937733D1*
X1799038Y4944536D1*
X1662859Y4808299D1*
X1670376Y4787850D1*
X1676435Y4766366D1*
X1680790Y4744473D1*
X1683414Y4722305D1*
X1684290Y4700000D1*
X1683414Y4677695D1*
X1680790Y4655527D1*
X1676435Y4633634D1*
X1670376Y4612150D1*
X1662650Y4591207D1*
X1653304Y4570935D1*
X1642397Y4551459D1*
X1629995Y4532899D1*
X1616176Y4515368D1*
X1601023Y4498977D1*
X1584632Y4483824D1*
X1567101Y4470005D1*
X1535227Y4450147D1*
X1561380Y4434045D1*
X1586459Y4414601D1*
X1609215Y4392484D1*
X1629364Y4367968D1*
X1646655Y4341359D1*
X1660872Y4312988D1*
X1671840Y4283210D1*
X1679420Y4252395D1*
X1683519Y4220928D1*
X1684219Y4193651D1*
X1681741Y4162014D1*
X1675752Y4130851D1*
X1666327Y4100549D1*
X1653584Y4071486D1*
X1637682Y4044025D1*
X1618818Y4018507D1*
X1597227Y3995251D1*
X1573179Y3974545D1*
X1546974Y3956649D1*
X1518937Y3941785D1*
X1489418Y3930138D1*
X1458785Y3921854D1*
X1427419Y3917035D1*
X1395712Y3915742D1*
X1364058Y3917991D1*
X1332852Y3923754D1*
X1302483Y3932958D1*
X1273329Y3945490D1*
X1245753Y3961193D1*
X1220099Y3979872D1*
X1196686Y4001293D1*
X1175807Y4025190D1*
X1157721Y4051266D1*
X1142654Y4079194D1*
X1130794Y4108628D1*
X1122288Y4139200D1*
X1117242Y4170530D1*
X1115719Y4202227D1*
X1117738Y4233896D1*
X1123274Y4265143D1*
X1132258Y4295578D1*
X1144578Y4324822D1*
X1160081Y4352511D1*
X1178573Y4378300D1*
X1199824Y4401867D1*
X1223569Y4422919D1*
X1249512Y4441194D1*
X1264674Y4450001D1*
X1232899Y4470005D1*
X1215368Y4483824D1*
X1198977Y4498977D1*
X1183824Y4515368D1*
X1170005Y4532899D1*
X1157603Y4551459D1*
X1146696Y4570935D1*
X1137350Y4591207D1*
X1129624Y4612150D1*
X1123565Y4633634D1*
X1119210Y4655527D1*
X1116586Y4677695D1*
X1115710Y4700000D1*
X1116586Y4722305D1*
X1119210Y4744473D1*
X1123565Y4766366D1*
X1129624Y4787850D1*
X1137350Y4808793D1*
X1146696Y4829065D1*
X1157603Y4848541D1*
X1170005Y4867101D1*
X1183824Y4884632D1*
X1198977Y4901023D1*
X1215368Y4916176D1*
X1232899Y4929995D1*
X1264773Y4949853D1*
X1232899Y4970005D1*
X1215368Y4983824D1*
X1198977Y4998977D1*
X1183824Y5015368D1*
X1170005Y5032899D1*
X1157603Y5051459D1*
X1146696Y5070935D1*
X1137350Y5091207D1*
X1129624Y5112150D1*
X1123565Y5133634D1*
X1119210Y5155527D1*
X1116586Y5177695D1*
X1115710Y5200000D1*
X1116586Y5222305D1*
X1119210Y5244473D1*
X1123565Y5266366D1*
X1129624Y5287850D1*
X1137350Y5308793D1*
X1146696Y5329065D1*
X1157603Y5348541D1*
X1170005Y5367101D1*
X1183824Y5384632D1*
X1198977Y5401023D1*
X1215368Y5416176D1*
X1232899Y5429995D1*
X1251459Y5442397D1*
X1270935Y5453304D1*
X1290811Y5462467D1*
X1291047Y5508575D1*
X1293730Y5525513D1*
X1299029Y5541823D1*
X1306815Y5557104D1*
X1316895Y5570978D1*
X1363500Y5618059D1*
X1333634Y5623565D1*
X1312150Y5629624D1*
X1291207Y5637350D1*
X1270935Y5646696D1*
X1251459Y5657603D1*
X1232899Y5670005D1*
X1215368Y5683824D1*
X1198977Y5698977D1*
X1183824Y5715368D1*
X1170005Y5732899D1*
X1157603Y5751459D1*
X1146696Y5770935D1*
X1137350Y5791207D1*
X1129624Y5812150D1*
X1123565Y5833634D1*
X1119210Y5855527D1*
X1116586Y5877695D1*
X1115710Y5900000D1*
X1116586Y5922305D1*
X1119210Y5944473D1*
X1123565Y5966366D1*
X1129624Y5987850D1*
X1144469Y6024235D1*
X1116334Y6035796D1*
X1091677Y6050906D1*
X1081689Y6058780D1*
X1081750Y1341263D1*
X1103709Y1357133D1*
X1129475Y1370262D1*
X1156978Y1379198D1*
X1185541Y1383722D1*
X1214459D1*
X1243022Y1379198D1*
X1270525Y1370262D1*
X1296291Y1357133D1*
X1319687Y1340135D1*
X1340135Y1319687D1*
X1357133Y1296291D1*
X1370262Y1270525D1*
X1379198Y1243022D1*
X1383722Y1214459D1*
Y1185541D1*
X1379198Y1156978D1*
X1370262Y1129475D1*
X1357133Y1103709D1*
X1341220Y1081689D1*
X3368250Y1081750D1*
X3368641Y2504967D1*
X3371710Y2514414D1*
X3377549Y2522451D1*
X3385586Y2528290D1*
X3395033Y2531359D1*
X3431750Y2531750D1*
X4818250D1*
Y6158567D1*
X4796291Y6142867D1*
X4770525Y6129738D1*
X4743022Y6120802D1*
X4714459Y6116278D1*
X4685541D1*
X4656978Y6120802D1*
X4634301Y6127958D1*
X4633876Y5689464D1*
X4630580Y5668651D1*
X4624068Y5648609D1*
X4614501Y5629834D1*
X4602115Y5612785D1*
X4527606Y5537691D1*
X4474290Y5483790D1*
Y5325710D1*
X4125710D1*
Y5674290D1*
X4144934D1*
X4135468Y5696500D1*
X4128862Y5721002D1*
X4125884Y5746204D1*
X4126598Y5771572D1*
X4130988Y5796567D1*
X4137030Y5815742D1*
X3830614Y5815710D1*
X3676759Y5661844D1*
X3698539Y5656345D1*
X3722012Y5646708D1*
X3743722Y5633571D1*
X3763149Y5617248D1*
X3779832Y5598128D1*
X3793371Y5576668D1*
X3803444Y5553378D1*
X3809810Y5528815D1*
X3812318Y5503564D1*
X3811253Y5480993D1*
X3806380Y5456090D1*
X3797730Y5432235D1*
X3785510Y5409997D1*
X3770011Y5389906D1*
X3751603Y5372441D1*
X3730726Y5358019D1*
X3707876Y5346984D1*
X3683600Y5339599D1*
X3658476Y5336040D1*
X3633104Y5336393D1*
X3608088Y5340648D1*
X3584027Y5348705D1*
X3561493Y5360371D1*
X3558348Y5362406D1*
X2046598Y3469290D2*
X2069290D1*
Y3409138D1*
X3254708Y3409290D1*
X3546588Y3701148D1*
X3525513Y3693729D1*
X3508575Y3691047D1*
X3341250Y3690710D1*
X2022013D1*
X2011890Y3681068D1*
X2030105Y3662314D1*
X2044833Y3641650D1*
X2056308Y3619016D1*
X2064270Y3594921D1*
X2068541Y3569907D1*
X2069171Y3547651D1*
X2066321Y3522436D1*
X2059735Y3497929D1*
X2049559Y3474683D1*
X2046563Y3469282D1*
X2011890Y3934932D2*
X2028729Y3917945D1*
X2035576Y3909260D1*
X3454696Y3909290D1*
X4038446Y4493006D1*
X4038466Y4734375D1*
X4009306Y4734326D1*
X4008953Y4591425D1*
X4006270Y4574487D1*
X4000971Y4558177D1*
X3993185Y4542896D1*
X3983105Y4529022D1*
X3865027Y4410467D1*
X3686978Y4232895D1*
X3673104Y4222815D1*
X3657823Y4215029D1*
X3641513Y4209730D1*
X3624575Y4207047D1*
X3457250Y4206710D1*
X2028729Y4206055D1*
X2011890Y4189068D1*
X2030105Y4170314D1*
X2044833Y4149650D1*
X2056308Y4127016D1*
X2064270Y4102921D1*
X2068541Y4077907D1*
X2069171Y4055651D1*
X2066321Y4030436D1*
X2059735Y4005929D1*
X2049559Y3982683D1*
X2036023Y3961218D1*
X2019430Y3942018D1*
X2011900Y3935004D1*
X4546861Y7297071D2*
X4543441Y7275483D1*
X4536687Y7254696D1*
X4526764Y7235221D1*
X4513917Y7217538D1*
X4498462Y7202083D1*
X4480779Y7189236D1*
X4461304Y7179313D1*
X4440517Y7172559D1*
X4418929Y7169139D1*
X4397071D1*
X4375483Y7172559D1*
X4354696Y7179313D1*
X4335221Y7189236D1*
X4317538Y7202083D1*
X4302083Y7217538D1*
X4289236Y7235221D1*
X4279313Y7254696D1*
X4272559Y7275483D1*
X4269139Y7297071D1*
Y7318929D1*
X4272559Y7340517D1*
X4279313Y7361304D1*
X4289236Y7380779D1*
X4302083Y7398462D1*
X4317538Y7413917D1*
X4335221Y7426764D1*
X4354696Y7436687D1*
X4375483Y7443441D1*
X4397071Y7446861D1*
X4418929D1*
X4440517Y7443441D1*
X4461304Y7436687D1*
X4480779Y7426764D1*
X4498462Y7413917D1*
X4513917Y7398462D1*
X4526764Y7380779D1*
X4536687Y7361304D1*
X4543441Y7340517D1*
X4546861Y7318929D1*
Y7297071D1*
X3648067Y5500000D2*
D17*
X3812233D1*
X1730834Y3554000D2*
X2069166D1*
X1730834Y4062000D2*
X2069166D1*
X1730834Y4570000D2*
X2069166D1*
X1115834Y4200000D2*
X1684166D1*
X3614334Y6200000D2*
X3909666D1*
X4125834Y5754000D2*
X4300000D1*
X1800000Y7200000D2*
X2109166D1*
X3338100Y2505083D2*
D16*
X4811883D1*
X3338100Y2441917D2*
X4811883D1*
X3338100Y2378750D2*
X3713160D1*
X4582367D2*
X4811883D1*
X3338100Y2315583D2*
X3713160D1*
X4582367D2*
X4811883D1*
X3338100Y2252417D2*
X3713160D1*
X4582367D2*
X4811883D1*
X3338100Y2189250D2*
X3713160D1*
X4582367D2*
X4811883D1*
X3338100Y2126083D2*
X3713160D1*
X4582367D2*
X4811883D1*
X3338100Y2062917D2*
X3713160D1*
X4582367D2*
X4811883D1*
X3338100Y1999750D2*
X3713160D1*
X4582367D2*
X4811883D1*
X3338100Y1936583D2*
X3713160D1*
X4582367D2*
X4811883D1*
X3338100Y1873417D2*
X3905270D1*
X4394717D2*
X4811883D1*
X3338100Y1810250D2*
X3905270D1*
X4394717D2*
X4811883D1*
X4233817Y2412907D2*
X4576047D1*
Y1924327D1*
X4388400D1*
X4388417Y1756790D1*
X4818250Y1756750D1*
Y2568250D1*
X3331750D1*
Y1756750D1*
X3911560D1*
X3911583Y1924217D1*
X3719467Y1924327D1*
Y2412907D1*
X4322047Y2412783D1*
X4401757Y2168617D2*
D17*
X4575923D1*
X3719590D2*
X3893757D1*
X3338100Y1655083D2*
D16*
X3800224D1*
X4499766D2*
X4811883D1*
X3338100Y1591917D2*
X3800224D1*
X4499766D2*
X4811883D1*
X3338100Y1528750D2*
X3800224D1*
X4499766D2*
X4811883D1*
X3338100Y1465583D2*
X3800224D1*
X4499766D2*
X4811883D1*
X3338100Y1402417D2*
X3800224D1*
X4499766D2*
X4811883D1*
X3338100Y1339250D2*
X4576362D1*
X3338100Y1276083D2*
X4528241D1*
X3338100Y1212917D2*
X4511994D1*
X3338100Y1149750D2*
X4518692D1*
X3338100Y1086583D2*
X4551186D1*
X4561581Y1081705D2*
X4544748Y1104862D1*
X4531777Y1130320D1*
X4522948Y1157493D1*
X4518478Y1185714D1*
Y1214286D1*
X4522948Y1242507D1*
X4531777Y1269680D1*
X4544748Y1295138D1*
X4561543Y1318254D1*
X4581746Y1338457D1*
X4604862Y1355252D1*
X4630320Y1368223D1*
X4657493Y1377052D1*
X4685714Y1381522D1*
X4714286D1*
X4742507Y1377052D1*
X4769680Y1368223D1*
X4795138Y1355252D1*
X4818295Y1338419D1*
X4818250Y1718250D1*
X4493433D1*
X4492882Y1393208D1*
X4490112Y1383385D1*
X4485125Y1374480D1*
X4478197Y1366986D1*
X4469711Y1361315D1*
X4460135Y1357783D1*
X4450000Y1356583D1*
X3846594Y1356717D1*
X3836583Y1358708D1*
X3827315Y1362981D1*
X3819300Y1369300D1*
X3812981Y1377315D1*
X3808708Y1386583D1*
X3806717Y1396594D1*
X3806583Y1718368D1*
X3331750Y1718250D1*
Y1081750D1*
X4561442D1*
D18*
X3394067Y5500000D3*
D19*
X3648067D3*
D18*
X2105933Y5100000D3*
D19*
X1851933D3*
D20*
X3000000Y5436467D3*
D21*
Y5690467D3*
D22*
X1900000Y3300000D3*
D23*
Y3554000D3*
Y3808000D3*
Y4062000D3*
Y4316000D3*
Y4570000D3*
D22*
X1846000Y6154000D3*
D23*
Y5900000D3*
Y5646000D3*
D24*
X1400000Y5900000D3*
Y5200000D3*
Y4700000D3*
Y4200000D3*
D20*
X3000000Y6200000D3*
D25*
X3762000D3*
D26*
X4300000Y5500000D3*
D27*
Y6008000D3*
Y5754000D3*
D28*
X1800000Y7200000D3*
X2155000Y6700000D3*
X2460000Y7200000D3*
D29*
X4401757Y2168617D3*
X4147757D3*
X3893757D3*
X4401757Y4968617D3*
X4147757D3*
X3893757D3*
X3639757D3*
X3385757D3*
X3131757D3*
X2877757D3*
X2623757D3*
X2369757D3*
D30*
X4400000Y1450000D3*
D31*
Y1700000D3*
X3900000D3*
D30*
Y1450000D3*
D32*
X4150000Y1700000D3*
D14*
X3900000Y7308000D3*
Y7054000D3*
Y6800000D3*
M02*
