G04 DipTrace 3.0.0.2*
G04 TopMask.gbr*
%MOMM*%
G04 #@! TF.FileFunction,Soldermask,Top*
G04 #@! TF.Part,Single*
%ADD18R,1.8X1.8*%
%ADD28C,2.0*%
%ADD33C,2.3*%
%ADD34C,1.1*%
%ADD36C,3.2*%
%ADD43C,4.2*%
%ADD45C,1.7*%
%ADD47C,1.47*%
%ADD49C,1.9*%
%ADD51R,1.9X1.9*%
%ADD53C,2.2*%
%ADD54C,1.8*%
%ADD55R,1.7X3.2*%
%ADD58R,1.47X1.47*%
%ADD60C,1.47*%
%ADD62R,1.8X3.2*%
%ADD66C,4.7*%
%ADD68C,2.0*%
%ADD70R,2.0X2.0*%
%FSLAX35Y35*%
G04*
G71*
G90*
G75*
G01*
G04 TopMask*
%LPD*%
D70*
X4200000Y5500000D3*
D68*
Y6008000D3*
Y5754000D3*
D66*
X1800000Y7200000D3*
X2155000Y6700000D3*
X2460000Y7200000D3*
D33*
X1405000D3*
D18*
X3394067Y5500000D3*
D54*
X3648067D3*
D62*
X4301757Y2168617D3*
X4047757D3*
X3793757D3*
X4301757Y4968617D3*
X4047757D3*
X3793757D3*
X3539757D3*
X3285757D3*
X3031757D3*
X2777757D3*
X2523757D3*
X2269757D3*
D60*
X2850000Y5550000D3*
D58*
Y5804000D3*
D36*
X4300000Y1250000D3*
D55*
Y1500000D3*
X3800000D3*
D36*
Y1250000D3*
D53*
X4050000Y1500000D3*
D51*
X1900000Y3300000D3*
D49*
Y3554000D3*
Y3808000D3*
Y4062000D3*
Y4316000D3*
Y4570000D3*
D60*
X3000000Y6200000D3*
D47*
X3762000D3*
D51*
X2000000D3*
D49*
Y5946000D3*
Y5692000D3*
D45*
X3900000Y7308000D3*
Y7054000D3*
Y6800000D3*
D34*
X4408000Y7308000D3*
Y6800000D3*
D18*
X2040000Y5200000D3*
D54*
X1786000D3*
D43*
X1400000Y5800000D3*
Y5200000D3*
Y4700000D3*
Y4200000D3*
D28*
X1300000Y6200000D3*
X4700000D3*
Y1200000D3*
X1300000D3*
M02*
