G04 DipTrace 3.0.0.2*
G04 TopMask.gbr*
%MOMM*%
G04 #@! TF.FileFunction,Soldermask,Top*
G04 #@! TF.Part,Single*
%ADD26R,1.8X1.8*%
%ADD32C,2.0*%
%ADD33C,2.3*%
%ADD34C,1.1*%
%ADD41C,3.2*%
%ADD43C,1.7*%
%ADD45C,2.2*%
%ADD46C,1.8*%
%ADD47R,1.7X3.2*%
%ADD50R,1.8X3.2*%
%ADD52C,4.7*%
%ADD54C,2.0*%
%ADD56R,2.0X2.0*%
%ADD57C,1.47*%
%ADD59C,4.2*%
%ADD61C,1.9*%
%ADD63R,1.9X1.9*%
%ADD65R,1.47X1.47*%
%ADD67C,1.47*%
%FSLAX35Y35*%
G04*
G71*
G90*
G75*
G01*
G04 TopMask*
%LPD*%
D26*
X3394067Y5500000D3*
D46*
X3648067D3*
D26*
X2105933Y5100000D3*
D46*
X1851933D3*
D67*
X3000000Y5436467D3*
D65*
Y5690467D3*
D63*
X1900000Y3300000D3*
D61*
Y3554000D3*
Y3808000D3*
Y4062000D3*
Y4316000D3*
Y4570000D3*
D63*
X1846000Y6154000D3*
D61*
Y5900000D3*
Y5646000D3*
D59*
X1400000Y5900000D3*
Y5200000D3*
Y4700000D3*
Y4200000D3*
D67*
X3000000Y6200000D3*
D57*
X3762000D3*
D56*
X4300000Y5500000D3*
D54*
Y6008000D3*
Y5754000D3*
D52*
X1800000Y7200000D3*
X2155000Y6700000D3*
X2460000Y7200000D3*
D33*
X1405000D3*
D50*
X4401757Y2168617D3*
X4147757D3*
X3893757D3*
X4401757Y4968617D3*
X4147757D3*
X3893757D3*
X3639757D3*
X3385757D3*
X3131757D3*
X2877757D3*
X2623757D3*
X2369757D3*
D41*
X4400000Y1450000D3*
D47*
Y1700000D3*
X3900000D3*
D41*
Y1450000D3*
D45*
X4150000Y1700000D3*
D43*
X3900000Y7308000D3*
Y7054000D3*
Y6800000D3*
D34*
X4408000Y7308000D3*
Y6800000D3*
D32*
X1200000Y1200000D3*
X4700000D3*
Y6300000D3*
X1200000Y6200000D3*
M02*
